<svg width="11" height="11" viewBox="0 0 11 11" fill="none" xmlns="http://www.w3.org/2000/svg">
<path d="M3.3824 0.28125C3.47522 0.28125 3.56425 0.318125 3.62989 0.383763C3.69552 0.4494 3.7324 0.538424 3.7324 0.63125V1.28575H7.4909V0.63575C7.4909 0.542924 7.52777 0.4539 7.59341 0.388263C7.65905 0.322625 7.74807 0.28575 7.8409 0.28575C7.93372 0.28575 8.02275 0.322625 8.08839 0.388263C8.15402 0.4539 8.1909 0.542924 8.1909 0.63575V1.28575H9.5459C9.81103 1.28575 10.0653 1.39104 10.2528 1.57847C10.4404 1.76589 10.5458 2.02012 10.5459 2.28525V9.28175C10.5458 9.54688 10.4404 9.80111 10.2528 9.98853C10.0653 10.176 9.81103 10.2812 9.5459 10.2812H1.5459C1.28077 10.2812 1.02649 10.176 0.838968 9.98853C0.651446 9.80111 0.546031 9.54688 0.545898 9.28175V2.28525C0.546031 2.02012 0.651446 1.76589 0.838968 1.57847C1.02649 1.39104 1.28077 1.28575 1.5459 1.28575H3.0324V0.63075C3.03253 0.538011 3.06946 0.449115 3.13509 0.383586C3.20071 0.318056 3.28966 0.28125 3.3824 0.28125V0.28125ZM1.2459 4.15225V9.28175C1.2459 9.32115 1.25366 9.36016 1.26873 9.39655C1.28381 9.43295 1.30591 9.46602 1.33377 9.49388C1.36162 9.52174 1.3947 9.54384 1.43109 9.55891C1.46749 9.57399 1.5065 9.58175 1.5459 9.58175H9.5459C9.58529 9.58175 9.62431 9.57399 9.6607 9.55891C9.6971 9.54384 9.73017 9.52174 9.75803 9.49388C9.78589 9.46602 9.80799 9.43295 9.82306 9.39655C9.83814 9.36016 9.8459 9.32115 9.8459 9.28175V4.15925L1.2459 4.15225ZM3.8794 7.59075V8.42375H3.0459V7.59075H3.8794ZM5.9624 7.59075V8.42375H5.1294V7.59075H5.9624ZM8.0459 7.59075V8.42375H7.2124V7.59075H8.0459ZM3.8794 5.60225V6.43525H3.0459V5.60225H3.8794ZM5.9624 5.60225V6.43525H5.1294V5.60225H5.9624ZM8.0459 5.60225V6.43525H7.2124V5.60225H8.0459ZM3.0324 1.98525H1.5459C1.5065 1.98525 1.46749 1.99301 1.43109 2.00809C1.3947 2.02316 1.36162 2.04526 1.33377 2.07312C1.30591 2.10098 1.28381 2.13405 1.26873 2.17044C1.25366 2.20684 1.2459 2.24585 1.2459 2.28525V3.45275L9.8459 3.45975V2.28525C9.8459 2.24585 9.83814 2.20684 9.82306 2.17044C9.80799 2.13405 9.78589 2.10098 9.75803 2.07312C9.73017 2.04526 9.6971 2.02316 9.6607 2.00809C9.62431 1.99301 9.58529 1.98525 9.5459 1.98525H8.1909V2.44975C8.1909 2.54258 8.15402 2.6316 8.08839 2.69724C8.02275 2.76288 7.93372 2.79975 7.8409 2.79975C7.74807 2.79975 7.65905 2.76288 7.59341 2.69724C7.52777 2.6316 7.4909 2.54258 7.4909 2.44975V1.98525H3.7324V2.44525C3.7324 2.53808 3.69552 2.6271 3.62989 2.69274C3.56425 2.75838 3.47522 2.79525 3.3824 2.79525C3.28957 2.79525 3.20055 2.75838 3.13491 2.69274C3.06927 2.6271 3.0324 2.53808 3.0324 2.44525V1.98525Z" fill="#616161"/>
</svg>
