<svg width="11" height="11" viewBox="0 0 11 11" fill="none" xmlns="http://www.w3.org/2000/svg">
<path d="M5.59815 10.2812C4.60924 10.2812 3.64254 9.98801 2.82029 9.4386C1.99805 8.88919 1.35719 8.1083 0.978749 7.19467C0.600311 6.28104 0.501294 5.2757 0.69422 4.3058C0.887146 3.3359 1.36335 2.44498 2.06261 1.74572C2.76187 1.04646 3.65279 0.570252 4.62269 0.377326C5.5926 0.1844 6.59793 0.283416 7.51156 0.661854C8.42519 1.04029 9.20609 1.68115 9.75549 2.5034C10.3049 3.32565 10.5981 4.29235 10.5981 5.28125C10.5981 6.60733 10.0714 7.8791 9.13368 8.81678C8.196 9.75447 6.92423 10.2812 5.59815 10.2812ZM5.59815 0.995538C4.75051 0.995538 3.92191 1.24689 3.21713 1.71781C2.51235 2.18873 1.96304 2.85807 1.63866 3.64118C1.31429 4.42429 1.22942 5.28601 1.39478 6.11735C1.56015 6.9487 1.96832 7.71234 2.56769 8.31171C3.16706 8.91108 3.9307 9.31925 4.76204 9.48462C5.59339 9.64998 6.45511 9.56511 7.23822 9.24073C8.02133 8.91636 8.69067 8.36705 9.16159 7.66227C9.63251 6.95748 9.88386 6.12889 9.88386 5.28125C9.88386 4.14461 9.43233 3.05452 8.6286 2.25079C7.82487 1.44707 6.73479 0.995538 5.59815 0.995538Z" fill="#616161"/>
<path d="M7.23764 7.42404L5.24121 5.42761V2.06689H5.9555V5.13118L7.74121 6.92047L7.23764 7.42404Z" fill="#616161"/>
</svg>
