<svg width="33" height="33" viewBox="0 0 33 33" fill="none" xmlns="http://www.w3.org/2000/svg">
<rect x="0.662109" y="1.23682" width="31" height="31" rx="9.5" stroke="#616161"/>
<path d="M18.3064 10.7412H16.9157C16.5667 10.719 16.2174 10.7809 15.8916 10.9227C15.5658 11.0645 15.2709 11.2828 15.027 11.563C14.7831 11.8432 14.5959 12.1787 14.4778 12.5468C14.3598 12.9149 14.3138 13.3071 14.3429 13.6968V15.0579H12.9439C12.886 15.0579 12.8305 15.0836 12.7895 15.1294C12.7486 15.1752 12.7256 15.2373 12.7256 15.3021V17.2706C12.7258 17.3353 12.7488 17.3973 12.7897 17.4431C12.8306 17.4888 12.8861 17.5146 12.9439 17.5148H14.3429V22.4926C14.3431 22.5574 14.3663 22.6196 14.4073 22.6653C14.4484 22.7111 14.504 22.7368 14.562 22.7368H16.3859C16.4438 22.7368 16.4994 22.7111 16.5405 22.6653C16.5816 22.6196 16.6047 22.5574 16.6049 22.4926V17.5148H18.2396C18.2976 17.5148 18.3531 17.4891 18.394 17.4433C18.435 17.3975 18.458 17.3354 18.458 17.2706V15.2966C18.4577 15.2319 18.4348 15.1699 18.394 15.124C18.3737 15.1012 18.3495 15.0832 18.3229 15.0709C18.2963 15.0586 18.2677 15.0523 18.2389 15.0524H16.6035V13.8982C16.6035 13.3436 16.7217 13.0621 17.3684 13.0621H18.3057C18.3636 13.0621 18.4192 13.0364 18.4601 12.9906C18.501 12.9448 18.524 12.8826 18.524 12.8179V10.9862C18.524 10.9215 18.5012 10.8594 18.4604 10.8135C18.4196 10.7676 18.3643 10.7416 18.3064 10.7412Z" fill="#616161"/>
</svg>
