<svg width="33" height="33" viewBox="0 0 33 33" fill="none" xmlns="http://www.w3.org/2000/svg">
<rect x="0.623535" y="1.23682" width="31" height="31" rx="9.5" stroke="#616161"/>
<path d="M21.7963 13.8754L21.7964 13.8863L21.797 13.8972C21.8381 14.6226 21.8382 14.8491 21.8397 16.7413L21.8397 16.7477C21.8397 16.7478 21.8397 16.7479 21.8397 16.7481C21.8397 18.6403 21.83 18.8691 21.7982 19.6056L21.7981 19.6056L21.7978 19.6175C21.7876 20.1436 21.6921 20.6611 21.5144 21.1514C21.3642 21.551 21.1357 21.9128 20.8445 22.2142C20.5534 22.5154 20.2059 22.7497 19.8248 22.9031C19.3551 23.0852 18.8594 23.1833 18.3587 23.1935L18.3486 23.1937L18.3386 23.1943C17.6402 23.2366 17.4211 23.2368 15.5861 23.2368C13.7582 23.2368 13.538 23.2268 12.8265 23.1939L12.8265 23.1938L12.8204 23.1936C12.3178 23.1765 11.8213 23.0708 11.3523 22.8807L11.3504 22.8799C10.9681 22.7269 10.6197 22.4925 10.3279 22.1907C10.0366 21.8895 9.8081 21.5279 9.65793 21.1283C9.48011 20.637 9.38461 20.1194 9.37443 19.5942L9.37425 19.5849L9.37372 19.5756C9.33267 18.8503 9.33252 18.6228 9.33252 16.7244C9.33252 14.8326 9.34224 14.6038 9.37406 13.8665L9.37421 13.8665L9.37444 13.8541C9.38401 13.3301 9.47996 12.812 9.65789 12.3222C9.8078 11.9223 10.0361 11.5605 10.3274 11.2591C10.6185 10.9578 10.966 10.7237 11.3473 10.5706C11.8169 10.3885 12.3126 10.2901 12.8133 10.2794L12.8229 10.2792L12.8324 10.2786C13.5311 10.237 13.7505 10.2368 15.5854 10.2368C17.4137 10.2368 17.6338 10.2461 18.3443 10.279L18.3443 10.2791L18.3568 10.2794C18.8577 10.29 19.3535 10.3884 19.8234 10.5706C20.2046 10.7238 20.5521 10.958 20.8432 11.2592C21.1345 11.5606 21.3629 11.9226 21.5129 12.3224C21.6935 12.8188 21.7894 13.3443 21.7963 13.8754ZM18.2551 12.0609L18.6146 12.4084L18.2551 12.0609C18.1344 12.1857 18.0396 12.333 17.9752 12.4939C17.9108 12.6547 17.8779 12.8265 17.8779 12.9997C17.8779 13.1538 17.9038 13.3031 17.9517 13.4425C17.2722 12.9207 16.4421 12.6324 15.5809 12.6324C13.3731 12.6324 11.6133 14.4784 11.6133 16.7205C11.6133 18.9627 13.3731 20.8086 15.5809 20.8086C16.6388 20.8086 17.6497 20.3736 18.3924 19.6051C19.1344 18.8373 19.5484 17.7993 19.5484 16.7205C19.5484 15.8299 19.2663 14.9671 18.7503 14.2611C18.8858 14.3098 19.0324 14.3364 19.1865 14.3364C19.9251 14.3364 20.4943 13.7219 20.4943 12.9997C20.4943 12.8265 20.4613 12.6547 20.3969 12.4939C20.3325 12.333 20.2377 12.1857 20.1171 12.0609C19.9964 11.936 19.8523 11.8361 19.6923 11.7675C19.5324 11.6989 19.3603 11.6634 19.1861 11.6634C19.0119 11.6634 18.8398 11.6989 18.6798 11.7675C18.5199 11.8361 18.3757 11.936 18.2551 12.0609Z" fill="#616161" stroke="#616161"/>
<path d="M17.333 16.7204C17.333 17.7477 16.5325 18.5511 15.5806 18.5511C14.6287 18.5511 13.8281 17.7477 13.8281 16.7204C13.8281 15.6931 14.6287 14.8896 15.5806 14.8896C16.5325 14.8896 17.333 15.6931 17.333 16.7204Z" fill="#616161" stroke="#616161"/>
</svg>
