<svg width="33" height="33" viewBox="0 0 33 33" fill="none" xmlns="http://www.w3.org/2000/svg">
<rect x="1.30273" y="1.23682" width="31" height="31" rx="9.5" stroke="#616161"/>
<path d="M12.1237 11.2368H12.1233C12.0085 11.2367 11.8944 11.26 11.7874 11.3058C11.6803 11.3516 11.5818 11.4193 11.4981 11.5058C11.4144 11.5924 11.347 11.6961 11.3008 11.8115C11.2546 11.9268 11.2305 12.051 11.2305 12.1768L12.1237 11.2368ZM12.1237 11.2368C12.2384 11.2368 12.3524 11.2602 12.4594 11.3061C12.5664 11.352 12.6648 11.4197 12.7484 11.5063C12.8321 11.5929 12.8993 11.6967 12.9454 11.8121C12.9915 11.9275 13.0154 12.0517 13.0153 12.1775V12.1779M12.1237 11.2368L13.0153 12.1779M13.0153 12.1779C13.0153 12.7196 12.593 13.1332 12.1221 13.1332C11.6531 13.1332 11.2306 12.7205 11.2305 12.177L13.0153 12.1779ZM16.7593 16.3172H17.0653L17.2045 16.0446C17.4557 15.553 17.9685 15.055 18.9195 15.055C20.0091 15.055 20.5435 15.4077 20.8465 15.9C21.1837 16.4481 21.3002 17.2686 21.3002 18.3361V22.2368H19.8981V18.8368V18.8263C19.8981 18.3836 19.8981 17.7612 19.7021 17.2489C19.5981 16.9772 19.4298 16.7086 19.1559 16.5109C18.8797 16.3115 18.5395 16.2155 18.1483 16.2155C17.7691 16.2155 17.4342 16.2924 17.1544 16.4623C16.8711 16.6343 16.6834 16.8778 16.562 17.1434C16.3344 17.641 16.3225 18.2649 16.3225 18.7708V22.2368H14.9204V15.2246H16.2255V15.8172V16.3172H16.7255H16.7593ZM12.8255 22.2368H11.4218V15.2241H12.8255V22.2368Z" fill="#616161" stroke="#616161"/>
</svg>
