<svg width="33" height="33" viewBox="0 0 33 33" fill="none" xmlns="http://www.w3.org/2000/svg">
<rect x="0.482422" y="0.736816" width="32" height="32" rx="10" fill="#EB5757"/>
<path d="M22.1502 13.0261C21.6648 13.2492 21.1499 13.3958 20.6225 13.461C21.1781 13.116 21.5942 12.5745 21.7937 11.9366C21.2703 12.2582 20.6972 12.4842 20.0997 12.6045C19.7346 12.2025 19.2612 11.9233 18.7409 11.803C18.2206 11.6828 17.6774 11.7271 17.1817 11.9302C16.686 12.1333 16.2607 12.4858 15.961 12.942C15.6613 13.3983 15.501 13.9372 15.5009 14.4888C15.5012 14.6998 15.524 14.9101 15.5691 15.1159C14.511 15.0614 13.4759 14.7772 12.5309 14.2817C11.5859 13.7863 10.7521 13.0907 10.0839 12.2402C9.74337 12.8458 9.63891 13.563 9.79177 14.2456C9.94462 14.9282 10.3433 15.5248 10.9065 15.9137C10.4847 15.9011 10.0721 15.7832 9.70374 15.5701V15.6035C9.70403 16.2388 9.9161 16.8545 10.3042 17.3468C10.6922 17.839 11.2325 18.1777 11.8338 18.3056C11.6054 18.3679 11.3701 18.3993 11.1338 18.3991C10.9654 18.3994 10.7973 18.3832 10.6318 18.3509C10.8024 18.8975 11.1335 19.3754 11.5789 19.7182C12.0243 20.061 12.5619 20.2515 13.1169 20.2634C12.1736 21.0272 11.0098 21.4411 9.81204 21.4389C9.60092 21.4387 9.38997 21.4263 9.18018 21.4018C10.3236 22.1595 11.6429 22.5849 12.9999 22.6334C14.3569 22.6819 15.7014 22.3517 16.8926 21.6774C18.0838 21.0032 19.0778 20.0097 19.7702 18.8012C20.4627 17.5927 20.8282 16.2137 20.8283 14.8087L20.8205 14.4525C21.3431 14.0638 21.7937 13.5808 22.1509 13.0268L22.1502 13.0261Z" fill="white"/>
</svg>
