<svg width="169" height="57" viewBox="0 0 169 57" fill="none" xmlns="http://www.w3.org/2000/svg">
<path d="M22.2735 14.9109H25.4705C25.683 14.9109 25.8529 14.7509 25.8529 14.5609C25.8529 14.3609 25.683 14.2009 25.4705 14.2009H22.2735C22.0716 14.2009 21.8911 14.3609 21.8911 14.5609C21.8911 14.7509 22.061 14.9109 22.2735 14.9109ZM23.8667 41.3209C22.9532 41.3209 22.1991 42.0309 22.1991 42.8909C22.1991 43.7509 22.9426 44.4609 23.8667 44.4609C24.7908 44.4609 25.5343 43.7609 25.5343 42.8909C25.5343 42.0209 24.7908 41.3209 23.8667 41.3209ZM15.7093 39.9809H32.0453V17.2309H15.7093V39.9809ZM68.0631 32.5109C67.2877 32.5109 66.5867 32.7509 65.96 33.2309C65.3333 33.7209 64.9191 34.3509 64.7279 35.1409C64.6323 35.5109 64.5898 35.8109 64.5898 36.0409V38.2509C64.5898 39.2209 64.8979 40.0409 65.5351 40.7009C66.1618 41.3609 66.9797 41.7009 67.9887 41.7009C69.1677 41.7009 70.0918 41.2709 70.7503 40.4109C71.4089 39.5509 71.7382 38.4209 71.7382 37.0109C71.7382 35.7209 71.4301 34.6509 70.8141 33.8109C70.1237 32.9509 69.2102 32.5109 68.0631 32.5109ZM125.345 32.3209C124.092 32.3209 123.125 32.8509 122.477 33.9009C121.904 34.7709 121.628 35.8309 121.628 37.0909C121.628 38.3109 121.904 39.3609 122.477 40.2309C123.147 41.2809 124.103 41.8109 125.324 41.8109C126.514 41.8109 127.459 41.2809 128.139 40.2009C128.723 39.3209 129.02 38.2609 129.02 37.0409C129.02 35.8209 128.744 34.7709 128.181 33.9009C127.501 32.8509 126.567 32.3209 125.345 32.3209ZM83.5918 32.5109C82.8165 32.5109 82.1154 32.7509 81.4888 33.2309C80.8621 33.7209 80.4478 34.3509 80.246 35.1409C80.1504 35.5109 80.108 35.8109 80.108 36.0409V38.2509C80.108 39.2209 80.416 40.0409 81.0533 40.7009C81.6799 41.3609 82.4978 41.7009 83.5069 41.7009C84.6965 41.7009 85.6099 41.2709 86.2791 40.4109C86.9376 39.5509 87.2669 38.4209 87.2669 37.0109C87.2669 35.7209 86.9589 34.6509 86.3322 33.8109C85.6524 32.9509 84.739 32.5109 83.5918 32.5109ZM51.1535 27.7509H51.0898C50.888 28.5409 50.5906 29.6909 50.1551 31.2309L48.53 36.0509H53.7877L52.1413 31.2309C51.9608 30.7309 51.6315 29.5709 51.1535 27.7509ZM149.159 32.1809C148.139 32.1809 147.3 32.5909 146.663 33.3909C146.142 34.0309 145.824 34.7909 145.728 35.6809H152.271C152.292 34.8109 152.09 34.0509 151.666 33.4109C151.113 32.6009 150.274 32.1809 149.159 32.1809ZM64.9934 19.0509C65.0359 18.9209 65.0359 18.8009 65.0359 18.6709V17.7309C63.7401 17.7209 62.4974 17.9709 62.4974 19.0109C62.4974 19.6909 62.9647 20.0009 63.5383 20.0009C64.2924 19.9909 64.8129 19.5409 64.9934 19.0509ZM47.8608 14.7509C47.6697 14.1709 47.4997 13.5309 47.351 12.9809H47.3191C47.1704 13.5309 47.0111 14.1909 46.8412 14.7509L46.0658 17.0909H48.6468L47.8608 14.7509ZM161.862 0.940918H7.1377C3.20772 0.940918 0 3.96092 0 7.66092V49.5209C0 53.2209 3.20772 56.2309 7.1377 56.2309H161.862C165.803 56.2309 169 53.2209 169 49.5209V7.66092C169.011 3.96092 165.803 0.940918 161.862 0.940918ZM152.059 14.0709C154.417 14.0709 155.203 15.9009 155.203 17.4009C155.203 17.7209 155.171 17.9809 155.139 18.1309H150.263C150.306 19.3709 151.326 19.9009 152.505 19.9009C153.354 19.9009 153.96 19.7709 154.523 19.5909L154.788 20.7709C154.162 21.0209 153.291 21.2109 152.25 21.2109C149.892 21.2109 148.5 19.8509 148.5 17.7509C148.5 15.8609 149.722 14.0709 152.059 14.0709ZM122.892 14.2309L122.977 15.2609H123.019C123.348 14.7209 124.134 14.0809 125.345 14.0809C126.62 14.0809 127.926 14.8509 127.926 17.0209V21.0909H126.089V17.2209C126.089 16.2409 125.696 15.4909 124.697 15.4909C123.964 15.4909 123.455 15.9809 123.263 16.5009C123.2 16.6409 123.178 16.8509 123.178 17.0509V21.0909H121.341V16.2809C121.341 15.4909 121.309 14.8309 121.277 14.2409H122.892V14.2309ZM103.582 14.0709C105.94 14.0709 106.726 15.9009 106.726 17.4009C106.726 17.7209 106.694 17.9809 106.662 18.1309H101.787C101.829 19.3709 102.849 19.9009 104.028 19.9009C104.877 19.9009 105.472 19.7709 106.046 19.5909L106.311 20.7709C105.685 21.0209 104.814 21.2109 103.773 21.2109C101.415 21.2109 100.023 19.8509 100.023 17.7509C100.023 15.8609 101.256 14.0709 103.582 14.0709ZM96.0509 11.0909H97.8885V21.0809H96.0509V11.0909ZM81.4781 15.2909C80.7559 15.2909 80.0124 15.5009 79.5238 15.8009L79.1626 14.6709C79.7043 14.3609 80.639 14.0709 81.7968 14.0709C84.1335 14.0709 84.8027 15.4609 84.8027 16.9709V19.4309C84.8027 20.0509 84.8346 20.6509 84.9195 21.0809H83.2626L83.1245 20.3209H83.082C82.6465 20.8509 81.8818 21.2409 80.9258 21.2409C79.46 21.2409 78.6422 20.2409 78.6422 19.2009C78.6422 17.4809 80.2673 16.6009 82.9652 16.6109V16.5009C82.9545 16.0409 82.7527 15.2909 81.4781 15.2909ZM70.6016 11.3709C71.2283 11.3709 71.6213 11.7809 71.6319 12.3109C71.6319 12.8209 71.2283 13.2409 70.5804 13.2409C69.9643 13.2409 69.5607 12.8209 69.5607 12.3109C69.5713 11.7809 69.9962 11.3709 70.6016 11.3709ZM71.5151 14.2309V21.0809H69.6776V14.2309H71.5151V14.2309ZM46.2357 11.5909H48.5831L51.8546 21.0709H49.8683L48.9549 18.3809H45.7684L44.8974 21.0709H42.9962L46.2357 11.5909ZM33.9891 43.0409C33.9891 44.7109 32.5445 46.0709 30.7707 46.0709H16.9627C15.1889 46.0709 13.7443 44.7209 13.7443 43.0409V14.1609C13.7443 12.4909 15.1889 11.1309 16.9627 11.1309H30.7707C32.5445 11.1309 33.9891 12.4909 33.9891 14.1609V43.0409ZM56.1775 43.7309L54.3506 38.3109H47.9777L46.2357 43.7309H42.9855L49.2841 25.2809H53.1823L59.5233 43.7309H56.1775ZM56.8892 21.0809H55.0835L52.375 14.2309H54.3612L55.5402 17.7109C55.7527 18.3109 55.9014 18.8609 56.0288 19.4309H56.0713C56.2094 18.8709 56.3687 18.3309 56.5599 17.7109L57.7283 14.2309H59.6614L56.8892 21.0809ZM60.6811 19.1909C60.6811 17.4709 62.3062 16.5909 65.0041 16.6009V16.4909C65.0041 16.0409 64.8129 15.2909 63.5277 15.2909C62.8054 15.2909 62.0619 15.5009 61.5733 15.8009L61.2122 14.6709C61.7539 14.3609 62.6886 14.0709 63.8463 14.0709C66.1724 14.0709 66.8522 15.4609 66.8522 16.9709V19.4309C66.8522 20.0509 66.8841 20.6509 66.9691 21.0809H65.3121L65.174 20.3209H65.1315C64.696 20.8509 63.9313 21.2409 62.9753 21.2409C61.4989 21.2309 60.6811 20.2309 60.6811 19.1909ZM72.9703 42.2909C71.8019 43.4509 70.3467 44.0409 68.6154 44.0409C66.7354 44.0409 65.3971 43.4109 64.5792 42.1509V49.1409H61.4458V34.8009C61.4458 33.3809 61.4034 31.9209 61.329 30.4309H64.0906L64.2606 32.5409H64.3137C65.3652 30.9609 66.9478 30.1609 69.0828 30.1609C70.7503 30.1609 72.1418 30.7809 73.257 32.0209C74.3723 33.2609 74.9246 34.9009 74.9246 36.9209C74.9352 39.1909 74.2767 40.9709 72.9703 42.2909ZM76.2417 21.0809H74.4042V11.0909H76.2417V21.0809ZM88.499 42.2909C87.3306 43.4509 85.8755 44.0409 84.1442 44.0409C82.2748 44.0409 80.9258 43.4109 80.1186 42.1509V49.1409H76.9746V34.8009C76.9746 33.3809 76.9321 31.9209 76.8578 30.4309H79.6087L79.7893 32.5409H79.8424C80.894 30.9609 82.4766 30.1609 84.6115 30.1609C86.2791 30.1609 87.6705 30.7809 88.7858 32.0209C89.901 33.2609 90.464 34.9009 90.464 36.9209C90.4534 39.1909 89.8055 40.9709 88.499 42.2909ZM90.6552 21.2309C89.7099 21.2309 88.8814 20.8909 88.3503 20.0509H88.3184L88.2335 21.0809H86.6615C86.6933 20.6209 86.7252 19.8609 86.7252 19.1509V11.0909H88.5627V15.1709H88.5946C89.0407 14.5109 89.8373 14.0709 90.9313 14.0709C92.7051 14.0709 93.9797 15.4609 93.9691 17.5409C93.9585 20.0109 92.2909 21.2309 90.6552 21.2309ZM106.46 42.3909C105.175 43.4709 103.401 44.0009 101.117 44.0009C99.0037 44.0009 97.3149 43.6209 96.0403 42.8509L96.7732 40.3909C98.1434 41.1509 99.6623 41.5409 101.298 41.5409C102.488 41.5409 103.401 41.2909 104.06 40.7909C104.718 40.2909 105.047 39.6209 105.047 38.7709C105.047 38.0309 104.771 37.4009 104.24 36.8909C103.688 36.3809 102.796 35.9109 101.542 35.4709C98.1115 34.2709 96.4015 32.5109 96.4015 30.1909C96.4015 28.6809 96.9963 27.4309 98.2178 26.4609C99.4286 25.5009 101.032 25.0109 103.029 25.0109C104.814 25.0109 106.29 25.3009 107.48 25.8809L106.683 28.2909C105.579 27.7309 104.325 27.4409 102.923 27.4409C101.818 27.4409 100.947 27.7009 100.321 28.2009C99.8004 28.6609 99.5348 29.2209 99.5348 29.8709C99.5348 30.5909 99.8322 31.2009 100.438 31.6809C100.958 32.1209 101.914 32.5909 103.284 33.1009C104.973 33.7309 106.216 34.4909 107.012 35.3509C107.809 36.2109 108.202 37.2709 108.202 38.5509C108.191 40.1309 107.607 41.4109 106.46 42.3909ZM117.528 32.6409H114.065V39.1109C114.065 40.7509 114.681 41.5709 115.903 41.5709C116.466 41.5709 116.922 41.5309 117.294 41.4409L117.379 43.6809C116.763 43.9009 115.945 44.0109 114.936 44.0109C113.704 44.0109 112.727 43.6609 112.026 42.9409C111.325 42.2309 110.974 41.0309 110.974 39.3609V32.6409H108.914V30.4309H110.974V28.0009L114.055 27.1209V30.4309H117.517V32.6409H117.528ZM115.754 21.2309C113.704 21.2309 112.111 19.9109 112.111 17.7009C112.111 15.4509 113.683 14.0709 115.881 14.0709C118.048 14.0709 119.503 15.5109 119.503 17.5909C119.493 20.1109 117.602 21.2309 115.754 21.2309ZM130.412 42.0109C129.105 43.3609 127.385 44.0309 125.239 44.0309C123.157 44.0309 121.5 43.3809 120.279 42.0909C119.047 40.8009 118.441 39.1609 118.441 37.1909C118.441 35.1309 119.079 33.4409 120.343 32.1309C121.617 30.8109 123.317 30.1609 125.473 30.1609C127.555 30.1609 129.222 30.8009 130.475 32.1009C131.676 33.3509 132.271 34.9809 132.271 36.9709C132.26 39.0209 131.644 40.6909 130.412 42.0109ZM133.651 14.2309H134.682V12.9409L136.487 12.4609V14.2209H138.24V15.5109H136.487V18.5409C136.487 19.3809 136.721 19.8109 137.433 19.8109C137.762 19.8109 137.942 19.8009 138.155 19.7409L138.187 21.0509C137.921 21.1509 137.422 21.2309 136.859 21.2309C136.169 21.2309 135.616 21.0209 135.276 20.6709C134.873 20.2809 134.692 19.6409 134.692 18.7409V15.5209H133.662V14.2309H133.651ZM141.713 33.0309C141.405 32.9809 141.076 32.9509 140.725 32.9509C139.621 32.9509 138.771 33.3409 138.166 34.1209C137.645 34.8209 137.38 35.6809 137.38 36.7509V43.7309H134.236V34.6109C134.236 33.0909 134.204 31.6909 134.151 30.4309H136.88L136.997 32.9809H137.082C137.411 32.1109 137.932 31.4009 138.654 30.8809C139.355 30.4009 140.109 30.1709 140.927 30.1709C141.214 30.1709 141.479 30.1809 141.703 30.2209V33.0309H141.713ZM142.191 16.9709V21.0809H140.354V11.0909H142.191V15.1609H142.223C142.446 14.8409 142.765 14.5709 143.136 14.3909C143.508 14.1909 143.944 14.0809 144.411 14.0809C145.654 14.0809 146.95 14.8509 146.95 17.0509V21.0909H145.112V17.2409C145.112 16.2509 144.719 15.4909 143.71 15.4909C142.988 15.4909 142.488 15.9409 142.276 16.4609C142.202 16.6009 142.191 16.7909 142.191 16.9709ZM155.149 37.8009H145.728C145.771 39.1109 146.217 40.1109 147.098 40.8009C147.895 41.4209 148.915 41.7309 150.179 41.7309C151.581 41.7309 152.845 41.5209 153.992 41.1009L154.491 43.1609C153.163 43.7109 151.57 43.9809 149.754 43.9809C147.566 43.9809 145.845 43.3809 144.602 42.1609C143.349 40.9509 142.722 39.3209 142.722 37.2809C142.722 35.2709 143.306 33.6009 144.464 32.2709C145.696 30.8509 147.343 30.1409 149.414 30.1409C151.453 30.1409 152.993 30.8509 154.034 32.2709C154.863 33.4009 155.287 34.8009 155.287 36.4609C155.256 36.9809 155.224 37.4309 155.149 37.8009ZM90.2516 15.4209C89.5081 15.4209 88.8177 15.9309 88.6265 16.6909C88.5946 16.8209 88.5627 16.9709 88.5627 17.1409V18.2509C88.5627 18.3909 88.5734 18.5309 88.6052 18.6609C88.7964 19.3609 89.4443 19.8709 90.2303 19.8709C91.3774 19.8709 92.0891 19.0109 92.0891 17.6209C92.0891 16.4109 91.473 15.4209 90.2516 15.4209ZM103.475 15.2509C102.339 15.2509 101.861 16.2209 101.787 16.9209H104.984C105.005 16.2909 104.708 15.2509 103.475 15.2509ZM115.828 15.3209C114.532 15.3209 114.001 16.5209 114.001 17.6609C114.001 18.9809 114.702 19.9809 115.807 19.9809C116.848 19.9809 117.581 19.0209 117.581 17.6309C117.592 16.5609 117.082 15.3209 115.828 15.3209ZM80.4585 19.0109C80.4585 19.6909 80.9258 20.0009 81.4994 20.0009C82.2429 20.0009 82.774 19.5509 82.9545 19.0609C82.997 18.9309 82.997 18.8109 82.997 18.6809V17.7409C81.7012 17.7209 80.4585 17.9709 80.4585 19.0109ZM151.952 15.2509C150.816 15.2509 150.338 16.2209 150.263 16.9209H153.461C153.471 16.2909 153.174 15.2509 151.952 15.2509Z" fill="#D7C2FF"/>
</svg>
