<svg width="170" height="57" viewBox="0 0 170 57" fill="none" xmlns="http://www.w3.org/2000/svg">
<path d="M73.1853 12.7263C72.8351 12.7263 72.5449 12.8764 72.3048 13.1866C72.0646 13.4967 71.9446 13.8869 71.9446 14.3572C71.9446 14.8475 72.0747 15.2477 72.3248 15.5579C72.5749 15.868 72.8951 16.0181 73.2553 16.0181C73.6055 16.0181 73.8956 15.858 74.1358 15.5478C74.3759 15.2377 74.496 14.8475 74.496 14.3772C74.496 13.8869 74.3659 13.4767 74.1158 13.1766C73.8756 12.8764 73.5655 12.7263 73.1853 12.7263Z" fill="#D7C2FF"/>
<path d="M80.0582 12.7566C79.9581 12.7566 79.818 12.7666 79.6379 12.7866C79.658 13.2569 79.678 13.7571 79.678 14.2674C79.678 14.8377 79.688 15.398 79.718 15.9483C79.8681 15.9783 80.0281 15.9984 80.1782 15.9984C80.6885 15.9984 81.0687 15.8383 81.3088 15.5281C81.549 15.2079 81.679 14.8277 81.679 14.3775C81.679 13.9272 81.549 13.537 81.2788 13.2268C81.0087 12.9067 80.5985 12.7566 80.0582 12.7566Z" fill="#D7C2FF"/>
<path d="M91.6733 12.7068C91.5033 12.7068 91.3233 12.7268 91.1433 12.7568C91.1733 13.2068 91.1833 13.7068 91.1833 14.2768C91.2433 14.2768 91.3133 14.2868 91.3933 14.2868C92.2533 14.2868 92.6833 14.0168 92.6833 13.4668C92.6833 12.9668 92.3533 12.7068 91.6733 12.7068Z" fill="#D7C2FF"/>
<path d="M87.1614 12.6965C87.1614 12.7866 86.9512 13.4469 86.531 14.6776H87.8217C87.4215 13.4569 87.2114 12.7966 87.2114 12.6965H87.1614Z" fill="#D7C2FF"/>
<path d="M53.636 12.6965C53.636 12.7866 53.4258 13.4469 53.0056 14.6776H54.2963C53.8961 13.4569 53.686 12.7966 53.686 12.6965H53.636Z" fill="#676099"/>
<path d="M68.1625 12.7166C67.9425 12.7166 67.7425 12.7366 67.5725 12.7666C67.6025 13.1366 67.6125 13.6066 67.6125 14.1966C67.7425 14.1966 67.8525 14.2066 67.9425 14.2066C68.6925 14.2066 69.0725 13.9466 69.0725 13.4266C69.0625 12.9466 68.7625 12.7166 68.1625 12.7166Z" fill="#D7C2FF"/>
<path d="M63.0701 12.7566C62.9701 12.7566 62.83 12.7666 62.6499 12.7866C62.6699 13.2569 62.6899 13.7571 62.6899 14.2674C62.6899 14.8377 62.6999 15.398 62.7299 15.9483C62.88 15.9783 63.0401 15.9984 63.1902 15.9984C63.7005 15.9984 64.0807 15.8383 64.3208 15.5281C64.5609 15.2079 64.691 14.8277 64.691 14.3775C64.691 13.9272 64.5609 13.537 64.2908 13.2268C64.0206 12.9067 63.6204 12.7566 63.0701 12.7566Z" fill="#D7C2FF"/>
<path d="M102.519 12.7263C102.169 12.7263 101.879 12.8764 101.639 13.1866C101.398 13.4967 101.278 13.8869 101.278 14.3572C101.278 14.8475 101.408 15.2477 101.659 15.5579C101.909 15.868 102.229 16.0181 102.589 16.0181C102.939 16.0181 103.229 15.858 103.47 15.5478C103.71 15.2377 103.83 14.8475 103.83 14.3772C103.83 13.8869 103.7 13.4767 103.45 13.1766C103.209 12.8764 102.889 12.7263 102.519 12.7263Z" fill="#D7C2FF"/>
<path d="M95.9355 12.7068C95.7655 12.7068 95.5855 12.7268 95.4055 12.7568C95.4355 13.2068 95.4455 13.7068 95.4455 14.2768C95.5055 14.2768 95.5755 14.2868 95.6555 14.2868C96.5155 14.2868 96.9455 14.0168 96.9455 13.4668C96.9455 12.9668 96.6055 12.7068 95.9355 12.7068Z" fill="#D7C2FF"/>
<path d="M86.6813 29.3542C85.6907 29.3542 84.8303 29.7244 84.0999 30.4649C83.3695 31.2053 83.0093 32.1858 83.0093 33.4165C83.0093 34.6371 83.3695 35.6176 84.0999 36.3681C84.8303 37.1085 85.6907 37.4787 86.6813 37.4787C87.6718 37.4787 88.5323 37.1085 89.2627 36.3681C89.9931 35.6277 90.3533 34.6471 90.3533 33.4165C90.3533 32.1958 89.9931 31.2153 89.2627 30.4649C88.5323 29.7244 87.6718 29.3542 86.6813 29.3542Z" fill="#D7C2FF"/>
<path d="M74.4159 29.3542C73.4253 29.3542 72.5649 29.7244 71.8345 30.4649C71.1041 31.2053 70.7439 32.1858 70.7439 33.4165C70.7439 34.6371 71.1041 35.6176 71.8345 36.3681C72.5649 37.1085 73.4153 37.4787 74.4159 37.4787C75.4064 37.4787 76.2669 37.1085 76.9973 36.3681C77.7277 35.6277 78.0879 34.6471 78.0879 33.4165C78.0879 32.1958 77.7277 31.2153 76.9973 30.4649C76.2669 29.7244 75.4064 29.3542 74.4159 29.3542Z" fill="#D7C2FF"/>
<path d="M132.643 24.6323H129.111V30.3654H132.643C133.534 30.3654 134.244 30.0653 134.774 29.475C135.315 28.8746 135.575 28.2243 135.575 27.5039C135.575 26.7835 135.305 26.1231 134.774 25.5328C134.244 24.9325 133.524 24.6323 132.643 24.6323Z" fill="#D7C2FF"/>
<path d="M145.439 34.1265C144.919 34.5667 144.659 35.087 144.659 35.6874C144.659 36.2377 144.899 36.6779 145.369 36.9981C145.839 37.3182 146.39 37.4783 147 37.4783C147.87 37.4783 148.661 37.1481 149.371 36.5078C150.082 35.8574 150.442 35.087 150.442 34.2066C149.842 33.7163 148.951 33.4762 147.76 33.4762C146.73 33.4662 145.959 33.6863 145.439 34.1265Z" fill="#D7C2FF"/>
<path d="M115.255 29.3542C114.475 29.3542 113.794 29.5944 113.224 30.0846C112.654 30.5749 112.253 31.2353 112.043 32.0557H118.557C118.507 31.4154 118.217 30.805 117.676 30.2247C117.136 29.6444 116.326 29.3542 115.255 29.3542Z" fill="#D7C2FF"/>
<path d="M98.8573 29.3542C97.8768 29.3542 97.0363 29.7244 96.336 30.4649C95.6356 31.2053 95.2854 32.1858 95.2854 33.4165C95.2854 34.6371 95.6356 35.6176 96.336 36.3681C97.0363 37.1085 97.8768 37.4787 98.8573 37.4787C99.8479 37.4787 100.698 37.1085 101.389 36.3781C102.089 35.6477 102.429 34.6571 102.429 33.4165C102.429 32.1758 102.079 31.1952 101.389 30.4548C100.698 29.7244 99.8579 29.3542 98.8573 29.3542Z" fill="#D7C2FF"/>
<path d="M161.637 0.960938H7.58389C3.46194 0.960938 0.110352 4.30252 0.110352 8.43447V48.7736C0.110352 52.8955 3.45193 56.2471 7.58389 56.2471H161.637C165.759 56.2471 169.11 52.9055 169.11 48.7736V8.43447C169.1 4.31252 165.759 0.960938 161.637 0.960938ZM94.485 12.0662H95.1053C95.1954 12.0662 95.3654 12.0662 95.6056 12.0562C95.8557 12.0462 96.0658 12.0462 96.2559 12.0462C96.7061 12.0462 97.0862 12.1462 97.3964 12.3563C97.7065 12.5564 97.8566 12.8666 97.8566 13.2868C97.8566 13.857 97.6465 14.2672 97.2263 14.5374C96.8061 14.8075 96.2959 14.9376 95.6756 14.9376C95.5655 14.9376 95.4855 14.9376 95.4355 14.9275C95.4355 15.3678 95.4455 15.958 95.4755 16.6884H94.475C94.505 16.0081 94.525 15.1977 94.525 14.2672C94.535 13.4168 94.515 12.6765 94.485 12.0662ZM85.7909 14.4173C86.3412 12.9966 86.6213 12.2163 86.6213 12.0662H87.9619C87.9619 12.1963 88.212 12.9766 88.7123 14.3773C89.2125 15.788 89.4626 16.5583 89.4626 16.6784H88.3221C88.3221 16.5183 88.2121 16.0781 88.002 15.3477H86.3612C86.1411 16.0681 86.031 16.5083 86.031 16.6784H84.9605C84.9605 16.5883 85.2407 15.838 85.7909 14.4173ZM78.7376 12.0662H79.3579C79.4579 12.0662 79.608 12.0662 79.8081 12.0562C80.0082 12.0462 80.1382 12.0462 80.1983 12.0462C81.0487 12.0462 81.669 12.2563 82.0591 12.6865C82.4393 13.1167 82.6394 13.6269 82.6394 14.2172C82.6394 14.8875 82.4193 15.4778 81.9891 15.978C81.5589 16.4783 80.9586 16.7284 80.1782 16.7284C79.8281 16.7284 79.3479 16.7184 78.7276 16.6884C78.7576 15.978 78.7776 15.1677 78.7776 14.2672C78.7776 13.4068 78.7676 12.6665 78.7376 12.0662ZM76.4865 12.0662H77.487C77.457 12.6665 77.437 13.3968 77.437 14.2672C77.437 15.1577 77.457 15.968 77.487 16.6884H76.4865C76.5165 15.958 76.5365 15.1477 76.5365 14.2672C76.5365 13.4068 76.5165 12.6665 76.4865 12.0662ZM71.6342 12.6765C72.0744 12.1963 72.6247 11.9561 73.285 11.9561C73.9053 11.9561 74.4355 12.1762 74.8557 12.6165C75.2759 13.0567 75.486 13.6169 75.486 14.2872C75.486 15.0176 75.2659 15.6179 74.8157 16.0981C74.3755 16.5783 73.8252 16.8184 73.1649 16.8184C72.5446 16.8184 72.0144 16.5983 71.5942 16.1581C71.174 15.7179 70.9639 15.1577 70.9639 14.4873C70.9639 13.757 71.194 13.1467 71.6342 12.6765ZM61.7495 12.0662H62.3698C62.4699 12.0662 62.6199 12.0662 62.82 12.0562C63.0201 12.0462 63.1502 12.0462 63.2102 12.0462C64.0606 12.0462 64.6809 12.2563 65.0711 12.6865C65.4513 13.1167 65.6514 13.6269 65.6514 14.2172C65.6514 14.8875 65.4313 15.4778 65.0011 15.978C64.5709 16.4783 63.9706 16.7284 63.1902 16.7284C62.84 16.7284 62.3598 16.7184 61.7395 16.6884C61.7695 15.978 61.7896 15.1677 61.7896 14.2672C61.7996 13.4068 61.7795 12.6665 61.7495 12.0662ZM56.7071 12.0662H57.7576C57.7576 12.1963 58.0478 12.6965 58.6381 13.5669C59.2583 14.4973 59.6185 15.1276 59.7086 15.4578H59.7586C59.6985 14.9275 59.6685 14.4573 59.6685 14.0371C59.6685 13.3968 59.6485 12.7365 59.6185 12.0662H60.5089C60.4789 12.6565 60.4589 13.3868 60.4589 14.2672C60.4589 15.1577 60.4789 15.958 60.5089 16.6884H59.6285C59.6285 16.5883 59.2984 16.0781 58.6481 15.1477C57.9677 14.1672 57.5776 13.5069 57.4875 13.1467H57.4275C57.4875 13.667 57.5175 14.1372 57.5175 14.5474C57.5175 15.1276 57.5375 15.848 57.5676 16.6884H56.6971C56.7371 15.958 56.7472 15.1477 56.7472 14.2672C56.7572 13.4068 56.7372 12.6665 56.7071 12.0662ZM52.265 14.4173C52.8153 12.9966 53.0954 12.2163 53.0954 12.0662H54.4361C54.4361 12.1963 54.6862 12.9766 55.1864 14.3773C55.6867 15.788 55.9368 16.5583 55.9368 16.6784H54.7962C54.7962 16.5183 54.6862 16.0781 54.4761 15.3477H52.8353C52.6152 16.0681 52.5051 16.5083 52.5051 16.6784H51.4346C51.4346 16.5883 51.7148 15.838 52.265 14.4173ZM14.8373 12.7765C22.0207 16.7984 29.2041 20.8303 36.3875 24.8422C36.7177 25.0223 36.7077 25.1324 36.4576 25.3825C34.8468 26.9632 33.256 28.554 31.6653 30.1548C31.4952 30.3248 31.3852 30.4249 31.155 30.1948C25.4423 24.362 19.7196 18.5493 13.9969 12.7265C13.9469 12.6765 13.9069 12.6165 13.8168 12.4964C14.247 12.4864 14.5472 12.6165 14.8373 12.7765ZM12.6263 48.2733C12.026 47.8131 11.7959 47.1928 11.7959 46.4525C11.7959 43.341 11.7959 40.2395 11.7859 37.1281C11.7859 34.927 11.7859 32.736 11.7859 30.5349H11.7959C11.7959 25.2925 11.7959 20.04 11.7959 14.7975C11.7959 14.1572 11.9159 13.5669 12.3762 13.0767C12.5563 12.8866 12.6763 12.8366 12.8964 13.0567C16.4281 16.6584 19.9598 20.2501 23.5014 23.8418C25.7925 26.1729 28.0836 28.494 30.3847 30.8151C30.6048 31.0352 30.6248 31.1552 30.3947 31.3953C24.772 36.988 19.1494 42.5906 13.5467 48.2033C13.1966 48.5635 12.9564 48.5234 12.6263 48.2733ZM35.7672 36.8779C29.0741 40.5397 22.3809 44.2214 15.6977 47.8932C15.5877 47.9532 15.4876 48.0532 15.4276 48.0932C20.6401 42.8208 25.8625 37.5583 31.065 32.2758C31.3852 31.9456 31.5352 31.9956 31.8254 32.2958C33.146 33.6764 34.4866 35.0271 35.8373 36.3777C36.0674 36.6078 36.0874 36.6978 35.7672 36.8779ZM44.4814 32.0056C44.1712 32.2357 43.821 32.4258 43.4809 32.6159C41.4599 33.7365 39.429 34.847 37.408 35.9675C37.1379 36.1176 36.9778 36.1176 36.7477 35.8775C35.307 34.3968 33.8563 32.9161 32.4056 31.4554C32.1955 31.2453 32.1855 31.1252 32.4056 30.9151C34.1064 29.2443 35.7972 27.5535 37.478 25.8627C37.6781 25.6626 37.8182 25.6426 38.0683 25.7827C40.0693 26.9132 42.0802 28.0338 44.0812 29.1543C44.7015 29.5044 45.1817 29.9547 45.2117 30.685C45.1817 31.2853 44.9116 31.6955 44.4814 32.0056ZM65.7214 36.968C64.1807 38.5887 62.1697 39.3991 59.6886 39.3991C57.3174 39.3991 55.3065 38.5787 53.6457 36.938C51.9849 35.2972 51.1545 33.2562 51.1545 30.8251C51.1545 28.3939 51.9849 26.353 53.6457 24.7122C55.3065 23.0714 57.3174 22.251 59.6886 22.251C60.8691 22.251 61.9896 22.4811 63.0601 22.9413C64.1306 23.4016 64.9911 24.0118 65.6314 24.7722L64.1907 26.2129C63.1002 24.9123 61.6095 24.262 59.6986 24.262C57.9677 24.262 56.477 24.8723 55.2164 26.0828C53.9558 27.2934 53.3255 28.8741 53.3255 30.8151C53.3255 32.756 53.9558 34.3367 55.2164 35.5473C56.477 36.7579 57.9677 37.3682 59.6986 37.3682C61.5294 37.3682 63.0602 36.7579 64.2907 35.5373C65.0811 34.7469 65.5413 33.6364 65.6714 32.2157H59.7086V30.2548H67.6723C67.7524 30.685 67.7824 31.0952 67.7824 31.4954C67.7624 33.7865 67.082 35.6073 65.7214 36.968ZM67.6123 14.8375C67.6123 15.4478 67.6223 16.0581 67.6423 16.6784H66.6519C66.6819 15.968 66.7019 15.1577 66.7019 14.2572C66.7019 13.3968 66.6819 12.6565 66.6519 12.0562H67.2621C67.3322 12.0562 67.4822 12.0562 67.7124 12.0462C67.9425 12.0362 68.1425 12.0362 68.3426 12.0362C69.4332 12.0362 69.9734 12.4064 69.9734 13.1467C69.9734 13.737 69.6633 14.1472 69.043 14.3773V14.4273C69.2831 14.4973 69.4932 14.6774 69.6733 14.9876C69.8534 15.2977 70.0935 15.858 70.4036 16.6684H69.3531C69.083 15.828 68.8729 15.3177 68.7228 15.1176C68.5728 14.9175 68.3426 14.8275 68.0125 14.8275C67.8724 14.8375 67.7424 14.8375 67.6123 14.8375ZM78.5575 37.6983C77.467 38.8389 76.0863 39.4091 74.4055 39.4091C72.7247 39.4091 71.3441 38.8389 70.2535 37.6983C69.163 36.5578 68.6228 35.1371 68.6228 33.4163C68.6228 31.7055 69.163 30.2748 70.2535 29.1343C71.3341 27.9937 72.7247 27.4235 74.4055 27.4235C76.0863 27.4235 77.467 27.9937 78.5575 29.1343C79.638 30.2748 80.1883 31.6955 80.1883 33.4163C80.1883 35.1271 79.648 36.5578 78.5575 37.6983ZM90.8333 37.6983C89.7428 38.8389 88.3621 39.4091 86.6813 39.4091C85.0005 39.4091 83.6199 38.8389 82.5294 37.6983C81.4389 36.5578 80.8986 35.1371 80.8986 33.4163C80.8986 31.7055 81.4389 30.2748 82.5294 29.1343C83.6099 27.9937 85.0005 27.4235 86.6813 27.4235C88.3621 27.4235 89.7428 27.9937 90.8333 29.1343C91.9138 30.2748 92.4641 31.6955 92.4641 33.4163C92.4641 35.1271 91.9138 36.5578 90.8333 37.6983ZM91.4236 14.9275C91.3135 14.9275 91.2335 14.9275 91.1835 14.9175C91.1835 15.3578 91.1935 15.948 91.2235 16.6784H90.223C90.253 15.9981 90.273 15.1877 90.273 14.2572C90.273 13.4068 90.253 12.6665 90.223 12.0562H90.8433C90.9333 12.0562 91.1034 12.0562 91.3435 12.0462C91.5937 12.0362 91.8037 12.0362 91.9938 12.0362C92.444 12.0362 92.8242 12.1362 93.1344 12.3463C93.4445 12.5464 93.5946 12.8566 93.5946 13.2768C93.5946 13.847 93.3845 14.2572 92.9643 14.5274C92.5541 14.7975 92.0338 14.9275 91.4236 14.9275ZM104.46 38.4587C104.46 40.3896 103.899 41.8503 102.789 42.8508C101.668 43.8512 100.308 44.3515 98.707 44.3515C97.3764 44.3515 96.2959 44.0213 95.4455 43.351C94.6051 42.6807 94.0048 41.9203 93.6346 41.0699L95.5655 40.2695C95.7756 40.8798 96.1758 41.3901 96.7461 41.8103C97.3164 42.2205 97.9767 42.4306 98.707 42.4306C99.8676 42.4306 100.778 42.0804 101.448 41.3901C102.119 40.6897 102.449 39.7493 102.449 38.5587V37.4782H102.359C101.989 38.0285 101.468 38.4887 100.798 38.8589C100.128 39.229 99.3673 39.4091 98.5269 39.4091C97.0762 39.4091 95.8157 38.8389 94.7652 37.6883C93.7147 36.5378 93.1844 35.1171 93.1844 33.4263C93.1844 31.7255 93.7147 30.3048 94.7652 29.1643C95.8157 28.0137 97.0762 27.4435 98.5269 27.4435C99.3673 27.4435 100.128 27.6236 100.798 27.9937C101.468 28.3639 101.989 28.8241 102.359 29.3744H102.449V27.8136H104.47V38.4587H104.46ZM104.15 16.0981C103.709 16.5783 103.159 16.8184 102.499 16.8184C101.879 16.8184 101.348 16.5983 100.928 16.1581C100.508 15.7179 100.298 15.1577 100.298 14.4873C100.298 13.757 100.518 13.1567 100.968 12.6765C101.408 12.1963 101.959 11.9561 102.619 11.9561C103.239 11.9561 103.769 12.1762 104.19 12.6165C104.61 13.0567 104.82 13.6169 104.82 14.2872C104.82 15.0176 104.6 15.6179 104.15 16.0981ZM108.562 39.039H106.451V22.6112H108.562V39.039ZM109.632 16.6884H108.752C108.752 16.5883 108.422 16.0781 107.771 15.1477C107.091 14.1672 106.701 13.5069 106.611 13.1467H106.551C106.611 13.667 106.641 14.1372 106.641 14.5474C106.641 15.1276 106.661 15.848 106.691 16.6884H105.82C105.86 15.958 105.87 15.1477 105.87 14.2672C105.87 13.4068 105.85 12.6665 105.82 12.0662H106.871C106.871 12.1963 107.161 12.6965 107.751 13.5669C108.372 14.4973 108.732 15.1276 108.822 15.4578H108.872C108.812 14.9275 108.782 14.4573 108.782 14.0371C108.782 13.3968 108.762 12.7365 108.732 12.0662H109.622C109.592 12.6565 109.572 13.3868 109.572 14.2672C109.582 15.1577 109.592 15.958 109.632 16.6884ZM120.787 33.8065H111.913C111.973 34.937 112.353 35.8374 113.044 36.4878C113.744 37.1481 114.555 37.4782 115.485 37.4782C116.996 37.4782 118.026 36.8379 118.556 35.5473L120.437 36.3277C120.067 37.1981 119.467 37.9284 118.626 38.5187C117.786 39.109 116.756 39.3991 115.535 39.3991C113.834 39.3991 112.454 38.8289 111.393 37.6983C110.333 36.5678 109.802 35.1371 109.802 33.4063C109.802 31.7655 110.323 30.3649 111.353 29.1843C112.383 28.0037 113.704 27.4235 115.305 27.4235C116.976 27.4235 118.306 27.9637 119.307 29.0542C120.307 30.1347 120.807 31.5954 120.807 33.4163L120.787 33.8065ZM136.205 30.9952C135.184 31.9156 133.984 32.3858 132.593 32.3858H129.111V39.039H127V22.6112H132.593C133.984 22.6112 135.184 23.0714 136.205 24.0018C137.225 24.9323 137.725 26.0928 137.725 27.5035C137.735 28.9042 137.225 30.0747 136.205 30.9952ZM141.217 39.039H139.106V22.6112H141.217V39.039ZM152.452 39.039H150.431V37.4782H150.341C149.501 38.7588 148.27 39.4091 146.65 39.4091C145.459 39.4091 144.459 39.069 143.658 38.3786C142.858 37.6883 142.458 36.7779 142.458 35.6474C142.458 34.4268 142.928 33.4663 143.878 32.766C144.829 32.0657 145.999 31.7255 147.39 31.7255C148.631 31.7255 149.641 31.9556 150.442 32.4158V32.0957C150.442 31.2653 150.161 30.605 149.591 30.1147C149.021 29.6145 148.331 29.3644 147.5 29.3644C146.89 29.3644 146.33 29.5145 145.839 29.8046C145.339 30.0947 144.999 30.4949 144.819 30.9952L142.888 30.1648C143.148 29.4944 143.658 28.8741 144.429 28.2939C145.189 27.7236 146.199 27.4335 147.46 27.4335C148.901 27.4335 150.091 27.8537 151.042 28.6941C151.992 29.5345 152.462 30.725 152.462 32.2457V39.039H152.452ZM157.045 43.9913H154.864L157.475 38.3286L152.843 27.8036H155.134L158.485 35.8775H158.535L161.787 27.8036H164.078L157.045 43.9913Z" fill="#D7C2FF"/>
</svg>
