<svg width="303" height="298" viewBox="0 0 303 298" fill="none" xmlns="http://www.w3.org/2000/svg">
<path opacity="0.2" d="M187.281 195.476L96.8535 38.4722L98.6338 191.762L187.281 195.476Z" stroke="#329DE3" stroke-miterlimit="10"/>
<path opacity="0.2" d="M191.963 191.733L232.839 116.516L101.608 34.8098" stroke="#329DE3" stroke-miterlimit="10"/>
<path opacity="0.2" d="M233.985 116.539L148.178 120.112L97.086 192.704" stroke="#329DE3" stroke-miterlimit="10"/>
<path opacity="0.2" d="M234.021 127.137L192.553 203.546L101.519 197.395L226.259 260.818L234.021 127.137Z" stroke="#329DE3" stroke-miterlimit="10"/>
<path opacity="0.2" d="M192.951 203.918L223.426 258.435" stroke="#329DE3" stroke-miterlimit="10"/>
<path opacity="0.2" d="M230.388 115.77C229.928 114.974 229.693 114.079 229.716 113.2C229.738 112.32 230.015 111.494 230.513 110.827C231.01 110.16 231.705 109.682 232.51 109.453C233.315 109.225 234.193 109.256 235.033 109.543C235.873 109.83 236.637 110.36 237.229 111.066C237.821 111.771 238.213 112.621 238.357 113.507C238.5 114.392 238.388 115.275 238.035 116.042C237.682 116.808 237.103 117.425 236.372 117.814C235.89 118.074 235.353 118.228 234.791 118.266C234.229 118.304 233.653 118.226 233.097 118.036C232.541 117.846 232.015 117.548 231.55 117.159C231.085 116.77 230.691 116.298 230.388 115.77V115.77Z" stroke="#329DE3" stroke-miterlimit="10"/>
<path opacity="0.2" d="M182.862 192.202C182.409 191.41 182.181 190.522 182.206 189.649C182.232 188.776 182.51 187.958 183.005 187.298C183.501 186.638 184.191 186.165 184.99 185.94C185.789 185.714 186.661 185.745 187.494 186.03C188.328 186.315 189.087 186.84 189.675 187.54C190.263 188.239 190.654 189.082 190.798 189.96C190.943 190.839 190.835 191.715 190.488 192.478C190.14 193.241 189.569 193.856 188.847 194.246C188.364 194.506 187.827 194.66 187.265 194.698C186.703 194.736 186.127 194.658 185.571 194.468C185.015 194.278 184.489 193.98 184.024 193.591C183.559 193.202 183.165 192.73 182.862 192.202V192.202Z" stroke="#329DE3" stroke-miterlimit="10"/>
<path opacity="0.2" d="M91.4178 194.678C90.9527 193.883 90.7141 192.989 90.7322 192.107C90.7503 191.226 91.0243 190.397 91.5195 189.727C92.0147 189.057 92.7086 188.576 93.5132 188.344C94.3178 188.112 95.1967 188.141 96.0383 188.426C96.88 188.711 97.6463 189.24 98.24 189.945C98.8337 190.65 99.228 191.5 99.3728 192.387C99.5176 193.274 99.4064 194.157 99.0533 194.925C98.7002 195.694 98.1211 196.311 97.3896 196.701C96.4194 197.224 95.2453 197.305 94.1254 196.926C93.0055 196.547 92.0315 195.738 91.4178 194.678V194.678Z" stroke="#329DE3" stroke-miterlimit="10"/>
<path opacity="0.2" d="M98.7977 41.2794C98.3332 40.4857 98.0945 39.592 98.112 38.7114C98.1295 37.8308 98.4023 37.0031 98.896 36.333C99.3896 35.663 100.082 35.1808 100.885 34.9476C101.688 34.7144 102.566 34.7408 103.407 35.0232C104.248 35.3057 105.015 35.8316 105.61 36.5343C106.205 37.237 106.602 38.0849 106.75 38.9704C106.898 39.8559 106.79 40.7393 106.441 41.5086C106.092 42.2778 105.517 42.8983 104.789 43.2914C103.817 43.8161 102.642 43.899 101.519 43.5219C100.396 43.1449 99.4178 42.3386 98.7977 41.2794V41.2794Z" stroke="#329DE3" stroke-miterlimit="10"/>
<path opacity="0.2" d="M189.134 202.883C188.674 202.088 188.44 201.194 188.461 200.315C188.483 199.436 188.759 198.611 189.255 197.944C189.751 197.277 190.444 196.798 191.247 196.568C192.05 196.338 192.927 196.367 193.767 196.652C194.606 196.936 195.371 197.463 195.964 198.166C196.558 198.869 196.953 199.717 197.099 200.601C197.246 201.486 197.138 202.368 196.789 203.136C196.44 203.904 195.865 204.524 195.138 204.916C194.656 205.18 194.117 205.337 193.554 205.378C192.99 205.418 192.412 205.342 191.854 205.153C191.295 204.963 190.768 204.665 190.301 204.276C189.834 203.886 189.437 203.413 189.134 202.883V202.883Z" stroke="#329DE3" stroke-miterlimit="10"/>
<path opacity="0.2" d="M145.094 124.1C144.634 123.305 144.399 122.411 144.421 121.532C144.443 120.653 144.719 119.828 145.215 119.161C145.711 118.494 146.404 118.015 147.207 117.785C148.01 117.555 148.887 117.584 149.727 117.869C150.566 118.153 151.331 118.68 151.924 119.383C152.518 120.086 152.913 120.934 153.059 121.818C153.206 122.703 153.098 123.585 152.749 124.353C152.4 125.121 151.825 125.741 151.098 126.133C150.616 126.397 150.077 126.554 149.514 126.594C148.95 126.635 148.372 126.558 147.814 126.369C147.255 126.18 146.727 125.882 146.261 125.493C145.794 125.103 145.397 124.629 145.094 124.1V124.1Z" stroke="#329DE3" stroke-miterlimit="10"/>
<path opacity="0.2" d="M97.6688 204.062C97.2131 203.266 96.9835 202.373 97.0091 201.496C97.0346 200.618 97.3141 199.796 97.8123 199.132C98.3104 198.468 99.0049 197.993 99.8082 197.766C100.611 197.539 101.487 197.571 102.326 197.857C103.164 198.143 103.927 198.672 104.518 199.375C105.109 200.078 105.502 200.925 105.648 201.809C105.793 202.692 105.684 203.573 105.335 204.34C104.986 205.107 104.412 205.725 103.685 206.118C103.201 206.379 102.66 206.534 102.095 206.572C101.53 206.61 100.951 206.531 100.392 206.34C99.8329 206.149 99.3045 205.85 98.8372 205.459C98.3698 205.068 97.9727 204.593 97.6688 204.062Z" stroke="#329DE3" stroke-miterlimit="10"/>
<path opacity="0.2" d="M220.228 260.208C219.763 259.413 219.524 258.518 219.542 257.637C219.56 256.755 219.834 255.927 220.33 255.257C220.825 254.587 221.519 254.105 222.323 253.874C223.128 253.642 224.007 253.67 224.848 253.956C225.69 254.241 226.456 254.769 227.05 255.475C227.644 256.18 228.038 257.03 228.183 257.917C228.328 258.804 228.216 259.687 227.863 260.455C227.51 261.223 226.931 261.841 226.2 262.23C225.23 262.754 224.055 262.835 222.935 262.456C221.816 262.076 220.842 261.268 220.228 260.208V260.208Z" stroke="#329DE3" stroke-miterlimit="10"/>
<path opacity="0.2" d="M235.095 127.839C234.642 127.047 234.413 126.159 234.439 125.286C234.464 124.414 234.742 123.596 235.238 122.935C235.733 122.275 236.424 121.802 237.223 121.577C238.022 121.351 238.893 121.383 239.727 121.667C240.56 121.952 241.319 122.478 241.907 123.177C242.495 123.876 242.886 124.719 243.031 125.598C243.175 126.477 243.067 127.353 242.72 128.115C242.373 128.878 241.801 129.493 241.079 129.883C240.597 130.144 240.059 130.297 239.497 130.335C238.935 130.373 238.359 130.295 237.803 130.105C237.247 129.915 236.722 129.617 236.257 129.228C235.792 128.839 235.397 128.367 235.095 127.839V127.839Z" stroke="#329DE3" stroke-miterlimit="10"/>
</svg>
