<svg width="108" height="125" viewBox="0 0 108 125" fill="none" xmlns="http://www.w3.org/2000/svg">
<path opacity="0.2" d="M50.4775 81.1721L11.5737 15.5121L68.3355 49.152L50.4775 81.1721Z" stroke="#EB5757" stroke-miterlimit="10"/>
<path opacity="0.2" d="M48.5502 82.6771L11.6424 80.8782L9.67619 17.0496" stroke="#EB5757" stroke-miterlimit="10"/>
<path opacity="0.2" d="M11.0338 81.2317L30.9427 51.6303L68.8201 49.1412" stroke="#EB5757" stroke-miterlimit="10"/>
<path opacity="0.2" d="M14.0349 83.7704L51.5948 85.6831L69.0286 52.4676L65.7035 109.814L14.0349 83.7704Z" stroke="#EB5757" stroke-miterlimit="10"/>
<path opacity="0.2" d="M51.7366 85.8568L64.8897 108.666" stroke="#EB5757" stroke-miterlimit="10"/>
<path opacity="0.2" d="M11.7656 80.41C11.5676 80.0774 11.2835 79.8029 10.9493 79.6212C10.6151 79.4396 10.2459 79.359 9.88839 79.3896C9.53089 79.4203 9.2012 79.5609 8.94115 79.7935C8.6811 80.0261 8.50238 80.3403 8.42763 80.6964C8.35288 81.0524 8.38547 81.4341 8.52127 81.7932C8.65707 82.1524 8.88996 82.4727 9.19044 82.7136C9.49092 82.9546 9.84547 83.1052 10.2091 83.1466C10.5728 83.1879 10.9292 83.1181 11.2332 82.9459C11.4351 82.8331 11.6091 82.6778 11.7452 82.4892C11.8814 82.3005 11.9769 82.082 12.0264 81.8464C12.0759 81.6107 12.0783 81.3625 12.0336 81.116C11.9888 80.8695 11.8977 80.6296 11.7656 80.41V80.41Z" stroke="#EB5757" stroke-miterlimit="10"/>
<path opacity="0.2" d="M49.7017 79.7157C49.5036 79.3865 49.2205 79.1154 48.8883 78.9364C48.5562 78.7575 48.1896 78.6787 47.8351 78.7102C47.4805 78.7416 47.1537 78.8818 46.896 79.113C46.6383 79.3442 46.4612 79.6562 46.387 80.0094C46.3128 80.3627 46.3449 80.7415 46.4792 81.098C46.6135 81.4545 46.8441 81.7727 47.1417 82.0126C47.4393 82.2524 47.7907 82.4031 48.1515 82.4456C48.5124 82.4881 48.8665 82.4206 49.1692 82.2515C49.3711 82.1387 49.5452 81.9835 49.6813 81.7948C49.8174 81.6061 49.913 81.3876 49.9625 81.152C50.012 80.9163 50.0144 80.6681 49.9696 80.4216C49.9249 80.1751 49.8338 79.9352 49.7017 79.7157V79.7157Z" stroke="#EB5757" stroke-miterlimit="10"/>
<path opacity="0.2" d="M70.3525 47.1456C70.1559 46.8117 69.8727 46.5355 69.5388 46.3521C69.2049 46.1687 68.8354 46.0864 68.4772 46.1156C68.119 46.1448 67.7883 46.2842 67.5271 46.5161C67.2659 46.748 67.086 47.062 67.0102 47.4181C66.9344 47.7742 66.9662 48.1564 67.1014 48.5161C67.2367 48.8759 67.4694 49.1969 67.7699 49.4385C68.0705 49.6801 68.4253 49.8314 68.7894 49.873C69.1535 49.9146 69.5103 49.8448 69.8147 49.6724C70.2211 49.4454 70.506 49.0516 70.6069 48.5778C70.7078 48.1039 70.6163 47.5887 70.3525 47.1456V47.1456Z" stroke="#EB5757" stroke-miterlimit="10"/>
<path opacity="0.2" d="M13.2246 16.6801C13.0282 16.3466 12.7454 16.0706 12.412 15.8872C12.0786 15.7038 11.7096 15.6212 11.3517 15.6498C10.9939 15.6785 10.6633 15.8171 10.4019 16.0482C10.1404 16.2792 9.95998 16.5923 9.88331 16.9477C9.80665 17.303 9.83723 17.6848 9.97121 18.0445C10.1052 18.4041 10.3365 18.7256 10.6359 18.968C10.9353 19.2105 11.2892 19.3631 11.6528 19.4064C12.0165 19.4498 12.3734 19.3819 12.6785 19.2115C13.0857 18.984 13.3716 18.5901 13.474 18.1158C13.5763 17.6414 13.4866 17.1253 13.2246 16.6801V16.6801Z" stroke="#EB5757" stroke-miterlimit="10"/>
<path opacity="0.2" d="M52.2139 84.2933C52.0161 83.9611 51.7324 83.6868 51.3987 83.5051C51.065 83.3235 50.6963 83.2426 50.3391 83.2727C49.9819 83.3028 49.6523 83.4426 49.3921 83.6744C49.1318 83.9062 48.9525 84.2195 48.8769 84.5748C48.8013 84.9301 48.8327 85.3114 48.9672 85.6704C49.1017 86.0295 49.3333 86.3502 49.6326 86.592C49.9319 86.8338 50.2855 86.9858 50.6487 87.0288C51.0119 87.0719 51.3684 87.004 51.6731 86.8338C51.8765 86.7218 52.0519 86.567 52.1893 86.3783C52.3267 86.1896 52.4234 85.9708 52.4737 85.7345C52.524 85.4982 52.5269 85.2492 52.4823 85.0018C52.4377 84.7545 52.3465 84.5136 52.2139 84.2933V84.2933Z" stroke="#EB5757" stroke-miterlimit="10"/>
<path opacity="0.2" d="M33.206 51.3312C33.0083 50.9989 32.7246 50.7246 32.3909 50.543C32.0572 50.3613 31.6885 50.2804 31.3313 50.3105C30.9741 50.3407 30.6445 50.4805 30.3842 50.7122C30.124 50.944 29.9447 51.2573 29.8691 51.6126C29.7935 51.9679 29.8249 52.3492 29.9594 52.7083C30.0939 53.0673 30.3255 53.388 30.6248 53.6298C30.9241 53.8716 31.2777 54.0236 31.6409 54.0667C32.0041 54.1097 32.3606 54.0418 32.6653 53.8716C32.8687 53.7596 33.0441 53.6048 33.1815 53.4161C33.3189 53.2274 33.4156 53.0086 33.4659 52.7723C33.5162 52.5361 33.5191 52.2871 33.4745 52.0397C33.4299 51.7923 33.3386 51.5515 33.206 51.3312V51.3312Z" stroke="#EB5757" stroke-miterlimit="10"/>
<path opacity="0.2" d="M72.3989 51.4359C72.1997 51.105 71.9152 50.8324 71.5812 50.6525C71.2472 50.4725 70.8787 50.3934 70.5222 50.425C70.1657 50.4565 69.8372 50.5975 69.5781 50.8299C69.319 51.0624 69.1409 51.376 69.0663 51.7312C68.9917 52.0864 69.024 52.4672 69.159 52.8257C69.294 53.1841 69.5258 53.5041 69.825 53.7452C70.1243 53.9863 70.4776 54.1379 70.8404 54.1806C71.2031 54.2234 71.5592 54.1554 71.8635 53.9854C72.0665 53.872 72.2415 53.716 72.3784 53.5262C72.5153 53.3365 72.6113 53.1169 72.6611 52.88C72.7108 52.6431 72.7133 52.3935 72.6683 52.1457C72.6233 51.8979 72.5317 51.6567 72.3989 51.4359Z" stroke="#EB5757" stroke-miterlimit="10"/>
<path opacity="0.2" d="M66.2502 107.933C66.0536 107.599 65.7704 107.323 65.4365 107.14C65.1026 106.956 64.7331 106.874 64.3749 106.903C64.0167 106.932 63.686 107.072 63.4248 107.304C63.1636 107.535 62.9837 107.849 62.9079 108.206C62.8321 108.562 62.8639 108.944 62.9991 109.304C63.1344 109.663 63.3671 109.984 63.6676 110.226C63.9682 110.468 64.323 110.619 64.6871 110.66C65.0512 110.702 65.408 110.632 65.7124 110.46C66.1188 110.233 66.4038 109.839 66.5046 109.365C66.6055 108.891 66.514 108.376 66.2502 107.933V107.933Z" stroke="#EB5757" stroke-miterlimit="10"/>
<path opacity="0.2" d="M15.1179 84.7212C14.9198 84.3921 14.6368 84.121 14.3046 83.942C13.9724 83.7631 13.6059 83.6843 13.2513 83.7158C12.8968 83.7472 12.57 83.8874 12.3123 84.1186C12.0546 84.3498 11.8775 84.6617 11.8033 85.015C11.7291 85.3683 11.7612 85.7471 11.8955 86.1036C12.0298 86.4601 12.2603 86.7783 12.5579 87.0182C12.8555 87.258 13.207 87.4087 13.5678 87.4512C13.9286 87.4937 14.2828 87.4262 14.5855 87.2571C14.7874 87.1443 14.9614 86.9891 15.0976 86.8004C15.2337 86.6117 15.3292 86.3932 15.3787 86.1576C15.4282 85.9219 15.4306 85.6737 15.3859 85.4272C15.3411 85.1807 15.25 84.9408 15.1179 84.7212V84.7212Z" stroke="#EB5757" stroke-miterlimit="10"/>
</svg>
