<svg width="513" height="278" viewBox="0 0 513 278" fill="none" xmlns="http://www.w3.org/2000/svg">
<g opacity="0.7">
<g opacity="0.7">
<g opacity="0.7">
<path opacity="0.7" d="M108.23 266.445L159.318 236.962L211.352 231.67L252.601 255.483L289.308 253.971L320.907 235.639" stroke="white" stroke-width="0.5349" stroke-miterlimit="10"/>
</g>
<g opacity="0.7">
<path opacity="0.7" d="M209.838 242.443L249.952 265.5L292.903 263.799L347.965 232.048" stroke="white" stroke-width="0.5349" stroke-miterlimit="10"/>
</g>
<path opacity="0.7" d="M323.367 236.773C322.232 237.529 320.34 237.529 319.204 236.773C318.069 236.017 318.069 235.072 319.204 234.316C320.34 233.56 322.232 233.56 323.367 234.316C324.502 235.072 324.502 236.017 323.367 236.773Z" fill="white"/>
<path opacity="0.7" d="M350.235 233.182C349.1 233.938 347.208 233.938 346.073 233.182C344.937 232.426 344.937 231.481 346.073 230.725C347.208 229.969 349.1 229.969 350.235 230.725C351.371 231.481 351.371 232.426 350.235 233.182Z" fill="white"/>
<path opacity="0.7" d="M295.174 264.933C294.039 265.689 292.146 265.689 291.011 264.933C289.876 264.177 289.876 263.232 291.011 262.476C292.146 261.72 294.039 261.72 295.174 262.476C296.309 263.232 296.309 264.366 295.174 264.933Z" fill="white"/>
<path opacity="0.7" d="M291.39 255.105C290.254 255.861 288.362 255.861 287.227 255.105C286.092 254.349 286.092 253.404 287.227 252.648C288.362 251.892 290.254 251.892 291.39 252.648C292.525 253.404 292.525 254.538 291.39 255.105Z" fill="white"/>
<path opacity="0.7" d="M213.434 232.993C212.298 233.749 210.406 233.749 209.271 232.993C208.136 232.237 208.136 231.292 209.271 230.536C210.406 229.78 212.298 229.78 213.434 230.536C214.569 231.292 214.569 232.426 213.434 232.993Z" fill="white"/>
<path opacity="0.7" d="M211.92 243.577C210.784 244.333 208.892 244.333 207.757 243.577C206.622 242.821 206.622 241.876 207.757 241.12C208.892 240.364 210.784 240.364 211.92 241.12C213.055 241.876 213.055 243.01 211.92 243.577Z" fill="white"/>
<path opacity="0.7" d="M110.312 267.578C109.177 268.334 107.284 268.334 106.149 267.578C105.014 266.823 105.014 265.878 106.149 265.122C107.284 264.366 109.177 264.366 110.312 265.122C111.636 265.878 111.636 267.012 110.312 267.578Z" fill="white"/>
</g>
<g opacity="0.7">
<g opacity="0.7">
<path opacity="0.7" d="M331.314 253.643L291.2 276.889L248.249 274.999L193.188 243.437" stroke="white" stroke-width="0.5349" stroke-miterlimit="10"/>
</g>
<path opacity="0.7" d="M190.917 244.382C192.052 245.138 193.944 245.138 195.08 244.382C196.215 243.626 196.215 242.681 195.08 241.925C193.944 241.169 192.052 241.169 190.917 241.925C189.782 242.681 189.782 243.815 190.917 244.382Z" fill="white"/>
<path opacity="0.7" d="M245.978 276.133C247.114 276.889 249.006 276.889 250.141 276.133C251.276 275.377 251.276 274.432 250.141 273.676C249.006 272.92 247.114 272.92 245.978 273.676C244.843 274.432 244.843 275.566 245.978 276.133Z" fill="white"/>
<path opacity="0.7" d="M329.232 254.966C330.368 255.722 332.26 255.722 333.395 254.966C334.53 254.21 334.53 253.265 333.395 252.509C332.26 251.753 330.368 251.753 329.232 252.509C328.097 253.076 328.097 254.21 329.232 254.966Z" fill="white"/>
</g>
<g opacity="0.7">
<g opacity="0.7">
<path opacity="0.7" d="M249.952 236.206L199.053 206.723L146.83 201.432L105.581 225.245L69.0631 223.733L37.2751 205.401" stroke="white" stroke-width="0.5349" stroke-miterlimit="10"/>
</g>
<g opacity="0.7">
<path opacity="0.7" d="M148.533 212.204L108.42 235.261L65.4681 233.56L10.4067 201.81" stroke="white" stroke-width="0.5349" stroke-miterlimit="10"/>
</g>
<path opacity="0.7" d="M34.8153 206.534C35.9506 207.29 37.8428 207.29 38.978 206.534C40.1133 205.778 40.1133 204.834 38.978 204.078C37.8428 203.322 35.9506 203.322 34.8153 204.078C33.68 204.645 33.68 205.778 34.8153 206.534Z" fill="white"/>
<path opacity="0.7" d="M7.94692 202.944C9.08221 203.7 10.9744 203.7 12.1096 202.944C13.2449 202.188 13.2449 201.243 12.1096 200.487C10.9744 199.731 9.08221 199.731 7.94692 200.487C6.81164 201.243 6.81164 202.188 7.94692 202.944Z" fill="white"/>
<path opacity="0.7" d="M63.1974 234.694C64.3327 235.45 66.2248 235.45 67.3601 234.694C68.4954 233.938 68.4954 232.993 67.3601 232.237C66.2248 231.481 64.3327 231.481 63.1974 232.237C62.0621 232.993 62.0621 233.938 63.1974 234.694Z" fill="white"/>
<path opacity="0.7" d="M66.9818 224.867C68.1171 225.623 70.0093 225.623 71.1445 224.867C72.2798 224.111 72.2798 223.166 71.1445 222.41C70.0093 221.654 68.1171 221.654 66.9818 222.41C65.8465 223.166 65.8465 224.3 66.9818 224.867Z" fill="white"/>
<path opacity="0.7" d="M144.938 202.755C146.073 203.511 147.965 203.511 149.101 202.755C150.236 201.999 150.236 201.054 149.101 200.298C147.965 199.542 146.073 199.542 144.938 200.298C143.803 201.054 143.803 202.188 144.938 202.755Z" fill="white"/>
<path opacity="0.7" d="M146.452 213.338C147.587 214.094 149.479 214.094 150.614 213.338C151.75 212.582 151.75 211.637 150.614 210.881C149.479 210.125 147.587 210.125 146.452 210.881C145.127 211.637 145.127 212.771 146.452 213.338Z" fill="white"/>
<path opacity="0.7" d="M247.871 237.34C249.006 238.096 250.898 238.096 252.033 237.34C253.169 236.584 253.169 235.639 252.033 234.883C250.898 234.127 249.006 234.127 247.871 234.883C246.735 235.639 246.735 236.584 247.871 237.34Z" fill="white"/>
</g>
</g>
<g opacity="0.7">
<g opacity="0.7">
<g opacity="0.7">
<g opacity="0.7">
<path opacity="0.7" d="M509.365 113.929L469.441 137.175L426.489 135.474L371.428 103.723" stroke="white" stroke-width="0.5349" stroke-miterlimit="10"/>
</g>
<path opacity="0.7" d="M395.836 108.259C396.971 109.015 398.863 109.015 399.999 108.259C401.134 107.503 401.134 106.558 399.999 105.802C398.863 105.046 396.971 105.046 395.836 105.802C394.701 106.558 394.701 107.692 395.836 108.259Z" fill="white"/>
<path opacity="0.7" d="M368.968 104.668C370.103 105.424 371.995 105.424 373.13 104.668C374.266 103.912 374.266 102.967 373.13 102.212C371.995 101.456 370.103 101.456 368.968 102.212C367.832 102.967 367.832 104.101 368.968 104.668Z" fill="white"/>
<path opacity="0.7" d="M424.218 136.419C425.353 137.175 427.246 137.175 428.381 136.419C429.516 135.663 429.516 134.718 428.381 133.962C427.246 133.206 425.353 133.206 424.218 133.962C423.083 134.718 423.083 135.852 424.218 136.419Z" fill="white"/>
<path opacity="0.7" d="M428.002 126.78C429.138 127.536 431.03 127.536 432.165 126.78C433.3 126.024 433.3 125.079 432.165 124.323C431.03 123.567 429.138 123.567 428.002 124.323C426.867 125.079 426.867 126.024 428.002 126.78Z" fill="white"/>
<path opacity="0.7" d="M507.283 115.252C508.418 116.008 510.311 116.008 511.446 115.252C512.581 114.496 512.581 113.551 511.446 112.795C510.311 112.039 508.418 112.039 507.283 112.795C506.148 113.362 506.148 114.496 507.283 115.252Z" fill="white"/>
</g>
<g opacity="0.7">
<g opacity="0.7">
<path opacity="0.7" d="M362.156 182.344L413.055 153.05L465.278 147.569L506.527 171.382" stroke="white" stroke-width="0.5349" stroke-miterlimit="10"/>
</g>
<g opacity="0.7">
<path opacity="0.7" d="M463.575 158.342L503.688 181.588" stroke="white" stroke-width="0.5349" stroke-miterlimit="10"/>
</g>
<path opacity="0.7" d="M467.17 149.081C466.035 149.837 464.143 149.837 463.007 149.081C461.872 148.325 461.872 147.38 463.007 146.624C464.143 145.868 466.035 145.868 467.17 146.624C468.305 147.191 468.305 148.325 467.17 149.081Z" fill="white"/>
<path opacity="0.7" d="M465.656 159.665C464.521 160.421 462.629 160.421 461.494 159.665C460.358 158.909 460.358 157.964 461.494 157.208C462.629 156.452 464.521 156.452 465.656 157.208C466.792 157.964 466.792 158.909 465.656 159.665Z" fill="white"/>
<path opacity="0.7" d="M364.237 183.667C363.102 184.423 361.21 184.423 360.075 183.667C358.939 182.911 358.939 181.966 360.075 181.21C361.21 180.454 363.102 180.454 364.237 181.21C365.373 181.966 365.373 182.911 364.237 183.667Z" fill="white"/>
</g>
<g opacity="0.7">
<g opacity="0.7">
<path opacity="0.7" d="M368.022 211.637L418.921 182.344L471.144 176.863L512.392 200.676" stroke="white" stroke-width="0.5349" stroke-miterlimit="10"/>
</g>
<g opacity="0.7">
<path opacity="0.7" d="M469.63 187.635L509.743 210.881" stroke="white" stroke-width="0.5349" stroke-miterlimit="10"/>
</g>
<path opacity="0.7" d="M473.036 178.186C471.9 178.942 470.008 178.942 468.873 178.186C467.738 177.43 467.738 176.485 468.873 175.729C470.008 174.973 471.9 174.973 473.036 175.729C474.171 176.485 474.171 177.619 473.036 178.186Z" fill="white"/>
<path opacity="0.7" d="M471.711 188.958C470.576 189.714 468.684 189.714 467.548 188.958C466.413 188.202 466.413 187.257 467.548 186.501C468.684 185.745 470.576 185.745 471.711 186.501C472.846 187.068 472.846 188.202 471.711 188.958Z" fill="white"/>
<path opacity="0.7" d="M370.103 212.771C368.968 213.527 367.076 213.527 365.94 212.771C364.805 212.015 364.805 211.07 365.94 210.314C367.076 209.558 368.968 209.558 370.103 210.314C371.238 211.07 371.238 212.204 370.103 212.771Z" fill="white"/>
</g>
</g>
</g>
<g opacity="0.7">
<g opacity="0.7">
<g opacity="0.7">
<g opacity="0.7">
<path opacity="0.7" d="M101.23 43.2464L152.129 72.7289L204.163 78.0207L245.6 54.2078L282.119 55.7198L313.907 74.0519" stroke="white" stroke-width="0.5349" stroke-miterlimit="10"/>
</g>
<g opacity="0.7">
<path opacity="0.7" d="M202.649 67.2482L242.762 44.1913L285.714 45.8922L340.775 77.6427" stroke="white" stroke-width="0.5349" stroke-miterlimit="10"/>
</g>
<path opacity="0.7" d="M316.177 72.9179C315.042 72.162 313.15 72.162 312.015 72.9179C310.879 73.6739 310.879 74.6189 312.015 75.3748C313.15 76.1308 315.042 76.1308 316.177 75.3748C317.313 74.6189 317.313 73.6739 316.177 72.9179Z" fill="white"/>
<path opacity="0.7" d="M343.045 76.5088C341.91 75.7528 340.018 75.7528 338.883 76.5088C337.747 77.2647 337.747 78.2097 338.883 78.9656C340.018 79.7216 341.91 79.7216 343.045 78.9656C344.37 78.2097 344.37 77.2647 343.045 76.5088Z" fill="white"/>
<path opacity="0.7" d="M287.984 44.7583C286.849 44.0023 284.957 44.0023 283.822 44.7583C282.686 45.5143 282.686 46.4592 283.822 47.2152C284.957 47.9712 286.849 47.9712 287.984 47.2152C289.12 46.4592 289.12 45.3253 287.984 44.7583Z" fill="white"/>
<path opacity="0.7" d="M284.2 54.3968C283.065 53.6409 281.173 53.6409 280.038 54.3968C278.902 55.1528 278.902 56.0978 280.038 56.8537C281.173 57.6097 283.065 57.6097 284.2 56.8537C285.336 56.2867 285.336 55.1528 284.2 54.3968Z" fill="white"/>
<path opacity="0.7" d="M206.244 76.6978C205.108 75.9418 203.216 75.9418 202.081 76.6978C200.946 77.4537 200.946 78.3987 202.081 79.1546C203.216 79.9106 205.108 79.9106 206.244 79.1546C207.379 78.3987 207.379 77.2647 206.244 76.6978Z" fill="white"/>
<path opacity="0.7" d="M204.73 66.1143C203.595 65.3583 201.703 65.3583 200.568 66.1143C199.432 66.8702 199.432 67.8152 200.568 68.5712C201.703 69.3271 203.595 69.3271 204.73 68.5712C205.866 67.8152 205.866 66.6812 204.73 66.1143Z" fill="white"/>
<path opacity="0.7" d="M103.311 42.1124C102.176 41.3565 100.284 41.3565 99.1486 42.1124C98.0133 42.8684 98.0133 43.8134 99.1486 44.5693C100.284 45.3253 102.176 45.3253 103.311 44.5693C104.447 43.8134 104.447 42.6794 103.311 42.1124Z" fill="white"/>
</g>
<g opacity="0.7">
<g opacity="0.7">
<path opacity="0.7" d="M425.732 2.04637L374.834 31.34L322.61 36.8207L281.362 13.0078L244.654 14.5198L213.055 32.6629" stroke="white" stroke-width="0.5349" stroke-miterlimit="10"/>
</g>
<g opacity="0.7">
<path opacity="0.7" d="M324.124 26.0482L284.011 2.80234L241.059 4.50326L186.187 36.2537" stroke="white" stroke-width="0.5349" stroke-miterlimit="10"/>
</g>
<path opacity="0.7" d="M210.596 31.7179C211.731 30.962 213.623 30.962 214.758 31.7179C215.894 32.4739 215.894 33.4189 214.758 34.1748C213.623 34.9308 211.731 34.9308 210.596 34.1748C209.46 33.4189 209.46 32.2849 210.596 31.7179Z" fill="white"/>
<path opacity="0.7" d="M183.727 35.3088C184.862 34.5528 186.755 34.5528 187.89 35.3088C189.025 36.0647 189.025 37.0097 187.89 37.7656C186.755 38.5216 184.862 38.5216 183.727 37.7656C182.592 37.0097 182.592 35.8757 183.727 35.3088Z" fill="white"/>
<path opacity="0.7" d="M238.788 3.55831C239.924 2.80234 241.816 2.80234 242.951 3.55831C244.086 4.31427 244.086 5.25922 242.951 6.01519C241.816 6.77115 239.924 6.77115 238.788 6.01519C237.653 5.25922 237.653 4.12528 238.788 3.55831Z" fill="white"/>
<path opacity="0.7" d="M242.573 13.1968C243.708 12.4409 245.6 12.4409 246.735 13.1968C247.871 13.9528 247.871 14.8978 246.735 15.6537C245.6 16.4097 243.708 16.4097 242.573 15.6537C241.437 14.8978 241.437 13.9528 242.573 13.1968Z" fill="white"/>
<path opacity="0.7" d="M320.718 35.4978C321.853 34.7418 323.746 34.7418 324.881 35.4978C326.016 36.2537 326.016 37.1987 324.881 37.9546C323.746 38.7106 321.853 38.7106 320.718 37.9546C319.583 37.1987 319.583 36.0647 320.718 35.4978Z" fill="white"/>
<path opacity="0.7" d="M322.043 24.7253C323.178 23.9693 325.07 23.9693 326.206 24.7253C327.341 25.4812 327.341 26.4262 326.206 27.1822C325.07 27.9381 323.178 27.9381 322.043 27.1822C320.908 26.6152 320.908 25.4812 322.043 24.7253Z" fill="white"/>
<path opacity="0.7" d="M423.651 0.912432C424.786 0.156468 426.678 0.156468 427.813 0.912432C428.949 1.66839 428.949 2.61335 427.813 3.36931C426.678 4.12528 424.786 4.12528 423.651 3.36931C422.515 2.61335 422.515 1.4794 423.651 0.912432Z" fill="white"/>
</g>
<g opacity="0.7">
<g opacity="0.7">
<path opacity="0.7" d="M242.762 73.4849L191.863 102.967L139.829 108.259L98.3915 84.4464L61.8732 85.9583L30.0852 104.29" stroke="white" stroke-width="0.5349" stroke-miterlimit="10"/>
</g>
<g opacity="0.7">
<path opacity="0.7" d="M141.343 97.4868L101.23 74.4299L58.2781 76.1308L3.2168 107.881" stroke="white" stroke-width="0.5349" stroke-miterlimit="10"/>
</g>
<path opacity="0.7" d="M27.8146 103.156C28.9499 102.401 30.842 102.401 31.9773 103.156C33.1126 103.912 33.1126 104.857 31.9773 105.613C30.842 106.369 28.9499 106.369 27.8146 105.613C26.6793 104.857 26.6793 103.912 27.8146 103.156Z" fill="white"/>
<path opacity="0.7" d="M0.946255 106.747C2.08154 106.18 3.78447 106.18 5.10897 106.747C6.24425 107.503 6.24425 108.448 5.10897 109.204C3.97368 109.96 2.08154 109.96 0.946255 109.204C-0.378244 108.448 -0.378244 107.503 0.946255 106.747Z" fill="white"/>
<path opacity="0.7" d="M58.089 77.8317C59.761 77.8317 61.1164 77.0702 61.1164 76.1308C61.1164 75.1914 59.761 74.4299 58.089 74.4299C56.417 74.4299 55.0615 75.1914 55.0615 76.1308C55.0615 77.0702 56.417 77.8317 58.089 77.8317Z" fill="white"/>
<path opacity="0.7" d="M59.7919 84.8244C60.9272 84.0684 62.8193 84.0684 63.9546 84.8244C65.0899 85.5803 65.0899 86.5253 63.9546 87.2812C62.8193 88.0372 60.9272 88.0372 59.7919 87.2812C58.6566 86.5253 58.6566 85.3913 59.7919 84.8244Z" fill="white"/>
<path opacity="0.7" d="M137.748 106.936C138.883 106.18 140.776 106.18 141.911 106.936C143.046 107.692 143.046 108.637 141.911 109.393C140.776 110.149 138.883 110.149 137.748 109.393C136.613 108.637 136.613 107.503 137.748 106.936Z" fill="white"/>
<path opacity="0.7" d="M139.262 96.3528C140.397 95.5968 142.289 95.5968 143.425 96.3528C144.56 97.1088 144.56 98.0537 143.425 98.8097C142.289 99.5656 140.397 99.5656 139.262 98.8097C138.127 98.0537 138.127 96.9198 139.262 96.3528Z" fill="white"/>
<path opacity="0.7" d="M240.681 72.351C241.816 71.595 243.708 71.595 244.843 72.351C245.979 73.1069 245.979 74.0519 244.843 74.8079C243.708 75.5638 241.816 75.5638 240.681 74.8079C239.545 74.0519 239.545 73.1069 240.681 72.351Z" fill="white"/>
</g>
</g>
</g>
</svg>
