<svg width="345" height="334" viewBox="0 0 345 334" fill="none" xmlns="http://www.w3.org/2000/svg">
<g opacity="0.6">
<path opacity="0.6" d="M204.09 3.41016L113.646 18.3532L40.2413 66.1971L3.34253 166.342L47.7129 281.429L142.614 330.191L227.423 317.476L306.004 267.404L343.821 165.49L299.844 52.1716L204.09 3.41016Z" stroke="#0071BC" stroke-width="0.8601" stroke-miterlimit="10"/>
<path opacity="0.6" d="M142.614 330.191L110.565 297.683L107.026 193.147L132.521 88.1527L113.646 18.353L39.3893 112.796L3.34253 166.341L37.6197 221.264L110.565 297.683L227.422 317.476L295.453 226.114L299.844 117.58V52.1715" stroke="#0071BC" stroke-width="0.8601" stroke-miterlimit="10"/>
<path opacity="0.6" d="M40.2412 66.1968L39.3892 112.795L37.6196 221.264L47.7127 281.429" stroke="#0071BC" stroke-width="0.8601" stroke-miterlimit="10"/>
<path opacity="0.6" d="M204.09 3.41016L223.425 40.7022L221.262 148.777L197.536 252.461L227.422 317.476" stroke="#0071BC" stroke-width="0.8601" stroke-miterlimit="10"/>
<path opacity="0.6" d="M113.318 18.353L223.752 40.8987L299.844 52.1715" stroke="#0071BC" stroke-width="0.8601" stroke-miterlimit="10"/>
<path opacity="0.6" d="M39.5203 113.189L132.062 88.0219L223.752 40.8989L299.581 117.318L343.493 165.359L295.452 226.114" stroke="#0071BC" stroke-width="0.8601" stroke-miterlimit="10"/>
<path opacity="0.6" d="M39.1926 113.189L106.567 193.147L197.078 252.461" stroke="#0071BC" stroke-width="0.8601" stroke-miterlimit="10"/>
<path opacity="0.6" d="M306.004 267.797L295.452 225.655L220.803 148.318L132.521 87.7595" stroke="#0071BC" stroke-width="0.8601" stroke-miterlimit="10"/>
<path opacity="0.6" d="M299.844 118.039L221.262 148.777L106.567 193.147L37.1609 221.722" stroke="#0071BC" stroke-width="0.8601" stroke-miterlimit="10"/>
<path opacity="0.6" d="M47.7129 281.429L110.107 297.224L196.619 252.461L295.453 226.114" stroke="#0071BC" stroke-width="0.8601" stroke-miterlimit="10"/>
<g opacity="0.6">
<path opacity="0.6" d="M303.121 52.4337C303.121 54.3344 301.613 55.8418 299.713 55.8418C297.812 55.8418 296.305 54.3344 296.305 52.4337C296.305 50.5331 297.812 49.0257 299.713 49.0257C301.613 48.9601 303.121 50.5331 303.121 52.4337Z" fill="#0071BC"/>
<path opacity="0.6" d="M303.317 117.58C303.317 119.481 301.81 120.988 299.909 120.988C298.009 120.988 296.501 119.481 296.501 117.58C296.501 115.68 298.009 114.172 299.909 114.172C301.744 114.172 303.317 115.68 303.317 117.58Z" fill="#0071BC"/>
<path opacity="0.6" d="M224.67 148.777C224.67 150.678 223.162 152.185 221.262 152.185C219.361 152.185 217.854 150.678 217.854 148.777C217.854 146.876 219.361 145.369 221.262 145.369C223.162 145.369 224.67 146.876 224.67 148.777Z" fill="#0071BC"/>
<path opacity="0.6" d="M298.926 225.655C298.926 227.556 297.419 229.063 295.518 229.063C293.618 229.063 292.11 227.556 292.11 225.655C292.11 223.754 293.618 222.247 295.518 222.247C297.353 222.247 298.926 223.754 298.926 225.655Z" fill="#0071BC"/>
<path opacity="0.6" d="M309.478 267.404C309.478 269.304 307.971 270.812 306.07 270.812C304.169 270.812 302.662 269.304 302.662 267.404C302.662 265.503 304.169 263.996 306.07 263.996C307.905 263.93 309.478 265.503 309.478 267.404Z" fill="#0071BC"/>
<path opacity="0.6" d="M230.831 317.213C230.831 319.114 229.323 320.622 227.422 320.622C225.522 320.622 224.014 319.049 224.014 317.213C224.014 315.313 225.522 313.805 227.422 313.805C229.258 313.805 230.831 315.313 230.831 317.213Z" fill="#0071BC"/>
<path opacity="0.6" d="M200.944 252.002C200.944 253.902 199.437 255.41 197.536 255.41C195.636 255.41 194.128 253.902 194.128 252.002C194.128 250.101 195.636 248.594 197.536 248.594C199.437 248.594 200.944 250.101 200.944 252.002Z" fill="#0071BC"/>
<path opacity="0.6" d="M113.973 297.486C113.973 299.387 112.466 300.894 110.565 300.894C108.665 300.894 107.157 299.321 107.157 297.486C107.157 295.586 108.665 294.078 110.565 294.078C112.466 294.013 113.973 295.586 113.973 297.486Z" fill="#0071BC"/>
<path opacity="0.6" d="M145.17 329.994C145.17 331.895 143.663 333.402 141.762 333.402C139.861 333.402 138.354 331.829 138.354 329.994C138.354 328.093 139.861 326.586 141.762 326.586C143.663 326.52 145.17 328.093 145.17 329.994Z" fill="#0071BC"/>
<path opacity="0.6" d="M50.531 281.888C50.531 283.788 49.0236 285.296 47.1229 285.296C45.2223 285.296 43.7148 283.723 43.7148 281.888C43.7148 279.987 45.2223 278.48 47.1229 278.48C48.958 278.414 50.531 279.987 50.531 281.888Z" fill="#0071BC"/>
<path opacity="0.6" d="M41.0935 221.46C41.0935 223.361 39.5861 224.868 37.6854 224.868C35.7848 224.868 34.2773 223.361 34.2773 221.46C34.2773 219.56 35.7848 218.052 37.6854 218.052C39.5205 218.052 41.0935 219.56 41.0935 221.46Z" fill="#0071BC"/>
<path opacity="0.6" d="M6.81612 166.341C6.81612 168.242 5.30871 169.749 3.40806 169.749C1.50741 169.749 0 168.177 0 166.341C0 164.441 1.50741 162.933 3.40806 162.933C5.24317 162.933 6.81612 164.441 6.81612 166.341Z" fill="#0071BC"/>
<path opacity="0.6" d="M43.0595 113.189C43.0595 115.089 41.5521 116.597 39.6515 116.597C37.7508 116.597 36.2434 115.089 36.2434 113.189C36.2434 111.288 37.7508 109.781 39.6515 109.781C41.4866 109.781 43.0595 111.288 43.0595 113.189Z" fill="#0071BC"/>
<path opacity="0.6" d="M43.4528 66.1969C43.4528 68.0975 41.9454 69.6049 40.0448 69.6049C38.1441 69.6049 36.6367 68.0975 36.6367 66.1969C36.6367 64.2962 38.1441 62.7888 40.0448 62.7888C41.9454 62.7888 43.4528 64.2962 43.4528 66.1969Z" fill="#0071BC"/>
<path opacity="0.6" d="M117.054 18.3531C117.054 20.2538 115.546 21.7612 113.646 21.7612C111.745 21.7612 110.238 20.2538 110.238 18.3531C110.238 16.4525 111.745 14.9451 113.646 14.9451C115.546 14.8796 117.054 16.4525 117.054 18.3531Z" fill="#0071BC"/>
<path opacity="0.6" d="M135.929 87.9562C135.929 89.8568 134.422 91.3642 132.521 91.3642C130.62 91.3642 129.113 89.8568 129.113 87.9562C129.113 86.0555 130.62 84.5481 132.521 84.5481C134.422 84.4826 135.929 86.0555 135.929 87.9562Z" fill="#0071BC"/>
<path opacity="0.6" d="M110.5 193.082C110.5 194.982 108.992 196.49 107.092 196.49C105.191 196.49 103.684 194.982 103.684 193.082C103.684 191.181 105.191 189.674 107.092 189.674C108.927 189.608 110.5 191.181 110.5 193.082Z" fill="#0071BC"/>
<path opacity="0.6" d="M227.357 41.2262C227.357 43.1269 225.849 44.6343 223.949 44.6343C222.048 44.6343 220.541 43.1269 220.541 41.2262C220.541 39.3256 222.048 37.8181 223.949 37.8181C225.849 37.7526 227.357 39.3256 227.357 41.2262Z" fill="#0071BC"/>
<path opacity="0.6" d="M207.564 3.41004C207.564 5.31068 206.057 6.8181 204.156 6.8181C202.255 6.8181 200.748 5.31068 200.748 3.41004C200.748 1.50939 202.255 0.00197681 204.156 0.00197681C205.991 -0.0635628 207.564 1.50939 207.564 3.41004Z" fill="#0071BC"/>
</g>
</g>
</svg>
